G04 #@! TF.FileFunction,Paste,Top*
%FSLAX46Y46*%
G04 Gerber Fmt 4.6, Leading zero omitted, Abs format (unit mm)*
G04 Created by KiCad (PCBNEW 4.0.4-stable) date 06/30/17 00:29:43*
%MOMM*%
%LPD*%
G01*
G04 APERTURE LIST*
%ADD10C,0.100000*%
G04 APERTURE END LIST*
D10*
G36*
X70268688Y-122628035D02*
X69561581Y-121920928D01*
X70975794Y-120506715D01*
X71682901Y-121213822D01*
X70268688Y-122628035D01*
X70268688Y-122628035D01*
G37*
G36*
X69261060Y-121620408D02*
X68553953Y-120913301D01*
X69968166Y-119499088D01*
X70675273Y-120206195D01*
X69261060Y-121620408D01*
X69261060Y-121620408D01*
G37*
G36*
X68253433Y-120612780D02*
X67546326Y-119905673D01*
X68960539Y-118491460D01*
X69667646Y-119198567D01*
X68253433Y-120612780D01*
X68253433Y-120612780D01*
G37*
G36*
X63232975Y-125633239D02*
X62525868Y-124926132D01*
X63940081Y-123511919D01*
X64647188Y-124219026D01*
X63232975Y-125633239D01*
X63232975Y-125633239D01*
G37*
G36*
X65248229Y-127648493D02*
X64541122Y-126941386D01*
X65955335Y-125527173D01*
X66662442Y-126234280D01*
X65248229Y-127648493D01*
X65248229Y-127648493D01*
G37*
G36*
X64240602Y-126640866D02*
X63533495Y-125933759D01*
X64947708Y-124519546D01*
X65654815Y-125226653D01*
X64240602Y-126640866D01*
X64240602Y-126640866D01*
G37*
G36*
X70021200Y-127401006D02*
X68606986Y-125986792D01*
X70021200Y-124572578D01*
X71435414Y-125986792D01*
X70021200Y-127401006D01*
X70021200Y-127401006D01*
G37*
G36*
X64222924Y-121461309D02*
X62808710Y-120047095D01*
X64222924Y-118632881D01*
X65637138Y-120047095D01*
X64222924Y-121461309D01*
X64222924Y-121461309D01*
G37*
M02*
