G04 #@! TF.FileFunction,Paste,Bot*
%FSLAX46Y46*%
G04 Gerber Fmt 4.6, Leading zero omitted, Abs format (unit mm)*
G04 Created by KiCad (PCBNEW 4.0.4-stable) date 06/30/17 00:29:43*
%MOMM*%
%LPD*%
G01*
G04 APERTURE LIST*
%ADD10C,0.100000*%
%ADD11R,1.270000X4.191000*%
%ADD12R,1.270000X3.683000*%
%ADD13R,2.000000X1.600000*%
%ADD14R,2.000000X1.700000*%
%ADD15R,1.500000X0.700000*%
%ADD16R,0.800000X1.000000*%
%ADD17R,1.200000X3.000000*%
%ADD18R,1.524000X3.000000*%
G04 APERTURE END LIST*
D10*
D11*
X56781700Y-49339500D03*
X61074300Y-49339500D03*
D12*
X58928000Y-49085500D03*
D11*
X56781700Y-49339500D03*
X61074300Y-49339500D03*
D13*
X60230000Y-90170000D03*
X64230000Y-90170000D03*
X60230000Y-95250000D03*
X64230000Y-95250000D03*
X60230000Y-92710000D03*
X64230000Y-92710000D03*
D14*
X64230000Y-100330000D03*
X60230000Y-100330000D03*
X60230000Y-97790000D03*
X64230000Y-97790000D03*
X71215000Y-106680000D03*
X67215000Y-106680000D03*
X64230000Y-104140000D03*
X60230000Y-104140000D03*
X72485000Y-104140000D03*
X68485000Y-104140000D03*
D15*
X76548000Y-49058000D03*
X76548000Y-52058000D03*
X76548000Y-53558000D03*
D16*
X79408000Y-47658000D03*
X79408000Y-54958000D03*
X77198000Y-54958000D03*
X77198000Y-47658000D03*
D17*
X73660000Y-76330000D03*
X71660000Y-76330000D03*
X69660000Y-76330000D03*
X67660000Y-76330000D03*
X65660000Y-76330000D03*
X63660000Y-76330000D03*
X61660000Y-76330000D03*
X59660000Y-76330000D03*
X59660000Y-56630000D03*
X61660000Y-56630000D03*
X63660000Y-56630000D03*
X65660000Y-56630000D03*
X67660000Y-56630000D03*
X69660000Y-56630000D03*
X71660000Y-56630000D03*
X73660000Y-56630000D03*
D18*
X70688200Y-91465400D03*
X70688200Y-100711000D03*
M02*
