G04 #@! TF.FileFunction,Copper,L1,Top,Signal*
%FSLAX46Y46*%
G04 Gerber Fmt 4.6, Leading zero omitted, Abs format (unit mm)*
G04 Created by KiCad (PCBNEW 4.0.4-stable) date 06/30/17 00:29:43*
%MOMM*%
%LPD*%
G01*
G04 APERTURE LIST*
%ADD10C,0.100000*%
%ADD11R,1.270000X4.191000*%
%ADD12C,1.524000*%
%ADD13R,1.850000X1.850000*%
%ADD14C,1.850000*%
%ADD15R,2.800000X2.800000*%
%ADD16R,1.700000X1.700000*%
%ADD17O,1.700000X1.700000*%
%ADD18C,0.600000*%
%ADD19C,0.250000*%
%ADD20C,0.254000*%
G04 APERTURE END LIST*
D10*
D11*
X56781700Y-49339500D03*
X61074300Y-49339500D03*
D12*
X62992000Y-48260000D03*
X65532000Y-48260000D03*
X68072000Y-48260000D03*
X70612000Y-48260000D03*
D13*
X68834000Y-82042000D03*
D14*
X68834000Y-84542000D03*
D10*
G36*
X70268688Y-122628035D02*
X69561581Y-121920928D01*
X70975794Y-120506715D01*
X71682901Y-121213822D01*
X70268688Y-122628035D01*
X70268688Y-122628035D01*
G37*
G36*
X69261060Y-121620408D02*
X68553953Y-120913301D01*
X69968166Y-119499088D01*
X70675273Y-120206195D01*
X69261060Y-121620408D01*
X69261060Y-121620408D01*
G37*
G36*
X68253433Y-120612780D02*
X67546326Y-119905673D01*
X68960539Y-118491460D01*
X69667646Y-119198567D01*
X68253433Y-120612780D01*
X68253433Y-120612780D01*
G37*
G36*
X63232975Y-125633239D02*
X62525868Y-124926132D01*
X63940081Y-123511919D01*
X64647188Y-124219026D01*
X63232975Y-125633239D01*
X63232975Y-125633239D01*
G37*
G36*
X65248229Y-127648493D02*
X64541122Y-126941386D01*
X65955335Y-125527173D01*
X66662442Y-126234280D01*
X65248229Y-127648493D01*
X65248229Y-127648493D01*
G37*
G36*
X64240602Y-126640866D02*
X63533495Y-125933759D01*
X64947708Y-124519546D01*
X65654815Y-125226653D01*
X64240602Y-126640866D01*
X64240602Y-126640866D01*
G37*
G36*
X70021200Y-127401006D02*
X68606986Y-125986792D01*
X70021200Y-124572578D01*
X71435414Y-125986792D01*
X70021200Y-127401006D01*
X70021200Y-127401006D01*
G37*
G36*
X64222924Y-121461309D02*
X62808710Y-120047095D01*
X64222924Y-118632881D01*
X65637138Y-120047095D01*
X64222924Y-121461309D01*
X64222924Y-121461309D01*
G37*
D12*
X55499000Y-57023000D03*
X55499000Y-59563000D03*
X55499000Y-62103000D03*
X55499000Y-64643000D03*
X55499000Y-67183000D03*
X55499000Y-69723000D03*
X55499000Y-72263000D03*
X55499000Y-74803000D03*
X55499000Y-77343000D03*
X55499000Y-79883000D03*
X55499000Y-82423000D03*
X55499000Y-84963000D03*
X55499000Y-87503000D03*
X55499000Y-90043000D03*
X55499000Y-92583000D03*
X55499000Y-95123000D03*
X55499000Y-97663000D03*
X55499000Y-100203000D03*
X55499000Y-102743000D03*
X55499000Y-105283000D03*
X78359000Y-57023000D03*
X78359000Y-59563000D03*
X78359000Y-62103000D03*
X78359000Y-64643000D03*
X78359000Y-67183000D03*
X78359000Y-69723000D03*
X78359000Y-72263000D03*
X78359000Y-74803000D03*
X78359000Y-77343000D03*
X78359000Y-79883000D03*
X78359000Y-82423000D03*
X78359000Y-84963000D03*
X78359000Y-87503000D03*
X78359000Y-90043000D03*
X78359000Y-92583000D03*
X78359000Y-95123000D03*
X78359000Y-97663000D03*
X78359000Y-100203000D03*
X78359000Y-102743000D03*
X78359000Y-105283000D03*
D15*
X62765000Y-111290000D03*
X70365000Y-111290000D03*
X59365000Y-111290000D03*
X73865000Y-111290000D03*
X59665000Y-134190000D03*
X73865000Y-134190000D03*
D16*
X77914500Y-129667000D03*
D17*
X77914500Y-127127000D03*
X77914500Y-124587000D03*
X77914500Y-122047000D03*
X77914500Y-119507000D03*
X77914500Y-116967000D03*
X77914500Y-114427000D03*
X77914500Y-111887000D03*
X77914500Y-109347000D03*
D16*
X63944500Y-51117500D03*
X55372000Y-53848000D03*
D18*
X71501000Y-78803500D03*
X69596000Y-78613000D03*
X66865500Y-78613000D03*
X60896500Y-80772000D03*
X62293500Y-95504000D03*
X65849500Y-116967000D03*
X67310000Y-116840000D03*
X61722000Y-53848000D03*
X72199500Y-114363500D03*
X67564000Y-59436000D03*
X57912000Y-53848000D03*
X68199000Y-50990500D03*
X76454000Y-49276000D03*
X60198000Y-100457000D03*
X65659000Y-123380500D03*
X71628000Y-116776500D03*
X69151500Y-101092000D03*
X64262000Y-107188000D03*
X63627000Y-108775500D03*
X55245000Y-108204000D03*
X67246500Y-106934000D03*
X58547000Y-102362000D03*
X71374000Y-115125500D03*
X67246500Y-118237000D03*
X60960000Y-117094000D03*
X61087000Y-115189000D03*
X64960500Y-109093000D03*
X68262500Y-104140000D03*
X76454000Y-52324000D03*
X76644500Y-66421000D03*
X74993500Y-67183000D03*
X71628000Y-69405500D03*
X71374000Y-72644000D03*
X75184000Y-61658500D03*
X70993000Y-63182500D03*
X68897500Y-63246000D03*
X66738500Y-63055500D03*
X64643000Y-65278000D03*
X74993500Y-53721000D03*
X74485500Y-59436000D03*
X70993000Y-61658500D03*
X68961000Y-61722000D03*
X66675000Y-61722000D03*
X62865000Y-62166500D03*
X77343000Y-81089500D03*
X75882500Y-83185000D03*
X74485500Y-82486500D03*
X74295000Y-85788500D03*
X79184500Y-83756500D03*
X72453500Y-87376000D03*
X69659500Y-80581500D03*
X70358000Y-68072000D03*
X68072000Y-71120000D03*
X73660000Y-57150000D03*
X73152000Y-79248000D03*
X72390000Y-86106000D03*
X65024000Y-72644000D03*
X75438000Y-72390000D03*
X76644500Y-80581500D03*
X75184000Y-80454500D03*
X74295000Y-81661000D03*
X75755500Y-84264500D03*
X76454000Y-89217500D03*
X77089000Y-90741500D03*
X76708000Y-110490000D03*
X73660000Y-122047000D03*
X74993500Y-125412500D03*
X64643000Y-123126500D03*
X59880500Y-114935000D03*
D19*
X71501000Y-78803500D02*
X71310500Y-78613000D01*
X71310500Y-78613000D02*
X69596000Y-78613000D01*
X66865500Y-78613000D02*
X66738500Y-78486000D01*
X66738500Y-78486000D02*
X61595000Y-78486000D01*
X61595000Y-78486000D02*
X60896500Y-79184500D01*
X60896500Y-79184500D02*
X60896500Y-80772000D01*
X60198000Y-108775500D02*
X60198000Y-110457000D01*
X61912500Y-107061000D02*
X60198000Y-108775500D01*
X61912500Y-95885000D02*
X61912500Y-107061000D01*
X62293500Y-95504000D02*
X61912500Y-95885000D01*
X60198000Y-110457000D02*
X59365000Y-111290000D01*
X59365000Y-111290000D02*
X59365000Y-112133500D01*
X59365000Y-112133500D02*
X64198500Y-116967000D01*
X64198500Y-116967000D02*
X65849500Y-116967000D01*
X67310000Y-116840000D02*
X67754500Y-117284500D01*
X67754500Y-117284500D02*
X71056500Y-117284500D01*
X71056500Y-117284500D02*
X71437500Y-117665500D01*
X71437500Y-117665500D02*
X71437500Y-118736861D01*
X71437500Y-118736861D02*
X69614613Y-120559748D01*
X60706000Y-52324000D02*
X60706000Y-52832000D01*
X60706000Y-52832000D02*
X61722000Y-53848000D01*
X56781700Y-49339500D02*
X56781700Y-52209700D01*
X61074300Y-51955700D02*
X61074300Y-50177700D01*
X60198000Y-52832000D02*
X60706000Y-52324000D01*
X60706000Y-52324000D02*
X61074300Y-51955700D01*
X57404000Y-52832000D02*
X60198000Y-52832000D01*
X56781700Y-52209700D02*
X57404000Y-52832000D01*
X61074300Y-50177700D02*
X62992000Y-48260000D01*
X74993500Y-122047000D02*
X77914500Y-122047000D01*
X73469500Y-120523000D02*
X74993500Y-122047000D01*
X73469500Y-119570500D02*
X73469500Y-120523000D01*
X73088500Y-119189500D02*
X73469500Y-119570500D01*
X73088500Y-115252500D02*
X73088500Y-119189500D01*
X72199500Y-114363500D02*
X73088500Y-115252500D01*
X55499000Y-84963000D02*
X55499000Y-84455000D01*
X55499000Y-84455000D02*
X60198000Y-79756000D01*
X60198000Y-79756000D02*
X60198000Y-75184000D01*
X60198000Y-75184000D02*
X67564000Y-67818000D01*
X67564000Y-67818000D02*
X67564000Y-59436000D01*
X69596000Y-52324000D02*
X69596000Y-50228500D01*
X69088000Y-52832000D02*
X69596000Y-52324000D01*
X68072000Y-52832000D02*
X69088000Y-52832000D01*
X66548000Y-54356000D02*
X68072000Y-52832000D01*
X64008000Y-54356000D02*
X66548000Y-54356000D01*
X63500000Y-54864000D02*
X64008000Y-54356000D01*
X61468000Y-54864000D02*
X63500000Y-54864000D01*
X60960000Y-54356000D02*
X61468000Y-54864000D01*
X58420000Y-54356000D02*
X60960000Y-54356000D01*
X57912000Y-53848000D02*
X58420000Y-54356000D01*
X78359000Y-74803000D02*
X78549500Y-74803000D01*
X78549500Y-74803000D02*
X79629000Y-73723500D01*
X79629000Y-73723500D02*
X79629000Y-47625000D01*
X79629000Y-47625000D02*
X79248000Y-47244000D01*
X79248000Y-47244000D02*
X72199500Y-47244000D01*
X72199500Y-47244000D02*
X71945500Y-47498000D01*
X71945500Y-47498000D02*
X71945500Y-48387000D01*
X71945500Y-48387000D02*
X71628000Y-48704500D01*
X71628000Y-48704500D02*
X71628000Y-49022000D01*
X71628000Y-49022000D02*
X70421500Y-50228500D01*
X70421500Y-50228500D02*
X69596000Y-50228500D01*
X69596000Y-50228500D02*
X69151500Y-50228500D01*
X69151500Y-50228500D02*
X68072000Y-49149000D01*
X68072000Y-49149000D02*
X68072000Y-48260000D01*
X68008500Y-51181000D02*
X64008000Y-51181000D01*
X68199000Y-50990500D02*
X68008500Y-51181000D01*
X64008000Y-51181000D02*
X63944500Y-51117500D01*
X68834000Y-82042000D02*
X68834000Y-73914000D01*
X76200000Y-49530000D02*
X76454000Y-49276000D01*
X76200000Y-50292000D02*
X76200000Y-49530000D01*
X74422000Y-52070000D02*
X76200000Y-50292000D01*
X73152000Y-52070000D02*
X74422000Y-52070000D01*
X71628000Y-53594000D02*
X73152000Y-52070000D01*
X71628000Y-65532000D02*
X71628000Y-53594000D01*
X65786000Y-71374000D02*
X71628000Y-65532000D01*
X65024000Y-71374000D02*
X65786000Y-71374000D01*
X63754000Y-72644000D02*
X65024000Y-71374000D01*
X63754000Y-73152000D02*
X63754000Y-72644000D01*
X64008000Y-73406000D02*
X63754000Y-73152000D01*
X68326000Y-73406000D02*
X64008000Y-73406000D01*
X68834000Y-73914000D02*
X68326000Y-73406000D01*
X62765000Y-111290000D02*
X62765000Y-107669000D01*
X68580000Y-99568000D02*
X68580000Y-84796000D01*
X65024000Y-103124000D02*
X68580000Y-99568000D01*
X65024000Y-105410000D02*
X65024000Y-103124000D01*
X62765000Y-107669000D02*
X65024000Y-105410000D01*
X68580000Y-84796000D02*
X68834000Y-84542000D01*
X63586528Y-124572579D02*
X63586528Y-124165528D01*
X63586528Y-124165528D02*
X54800500Y-115379500D01*
X54800500Y-115379500D02*
X54800500Y-109664500D01*
X54800500Y-109664500D02*
X57594500Y-106870500D01*
X57594500Y-106870500D02*
X57594500Y-105283000D01*
X57594500Y-105283000D02*
X60198000Y-102679500D01*
X60198000Y-102679500D02*
X60198000Y-100457000D01*
X65786000Y-124388361D02*
X64594155Y-125580206D01*
X65786000Y-123507500D02*
X65786000Y-124388361D01*
X65659000Y-123380500D02*
X65786000Y-123507500D01*
X68580000Y-116776500D02*
X71628000Y-116776500D01*
X68008500Y-116205000D02*
X68580000Y-116776500D01*
X68008500Y-109728000D02*
X68008500Y-116205000D01*
X68961000Y-108775500D02*
X68008500Y-109728000D01*
X68961000Y-106235500D02*
X68961000Y-108775500D01*
X69405500Y-105791000D02*
X68961000Y-106235500D01*
X69405500Y-104076500D02*
X69405500Y-105791000D01*
X68961000Y-103632000D02*
X69405500Y-104076500D01*
X68961000Y-101282500D02*
X68961000Y-103632000D01*
X69151500Y-101092000D02*
X68961000Y-101282500D01*
X55499000Y-97663000D02*
X54102000Y-99060000D01*
X64262000Y-108140500D02*
X64262000Y-107188000D01*
X63627000Y-108775500D02*
X64262000Y-108140500D01*
X54610000Y-108204000D02*
X55245000Y-108204000D01*
X54102000Y-107696000D02*
X54610000Y-108204000D01*
X54102000Y-99060000D02*
X54102000Y-107696000D01*
X65601782Y-126587833D02*
X66007667Y-126587833D01*
X66007667Y-126587833D02*
X67056000Y-125539500D01*
X67056000Y-125539500D02*
X67056000Y-120777000D01*
X67056000Y-120777000D02*
X66611500Y-120332500D01*
X66611500Y-120332500D02*
X66611500Y-110871000D01*
X66611500Y-110871000D02*
X67246500Y-110236000D01*
X67246500Y-110236000D02*
X67246500Y-106934000D01*
X57340500Y-95123000D02*
X55499000Y-95123000D01*
X58166000Y-95948500D02*
X57340500Y-95123000D01*
X58166000Y-101981000D02*
X58166000Y-95948500D01*
X58547000Y-102362000D02*
X58166000Y-101981000D01*
X71374000Y-115125500D02*
X72390000Y-116141500D01*
X72390000Y-116141500D02*
X72390000Y-119062500D01*
X72390000Y-119062500D02*
X72199500Y-119253000D01*
X72199500Y-119253000D02*
X72199500Y-119990116D01*
X72199500Y-119990116D02*
X70622241Y-121567375D01*
X68606986Y-119552120D02*
X68561620Y-119552120D01*
X68561620Y-119552120D02*
X67246500Y-118237000D01*
X60960000Y-117094000D02*
X61087000Y-116967000D01*
X61087000Y-116967000D02*
X61087000Y-115189000D01*
X64960500Y-109093000D02*
X64897000Y-109029500D01*
X64897000Y-109029500D02*
X64897000Y-107569000D01*
X64897000Y-107569000D02*
X67437000Y-105029000D01*
X67437000Y-105029000D02*
X67437000Y-104965500D01*
X67437000Y-104965500D02*
X68262500Y-104140000D01*
X70365000Y-111290000D02*
X70365000Y-109467000D01*
X76454000Y-59182000D02*
X76454000Y-52324000D01*
X73914000Y-61722000D02*
X76454000Y-59182000D01*
X73914000Y-80264000D02*
X73914000Y-61722000D01*
X73660000Y-80518000D02*
X73914000Y-80264000D01*
X73660000Y-106172000D02*
X73660000Y-80518000D01*
X70365000Y-109467000D02*
X73660000Y-106172000D01*
X76644500Y-66421000D02*
X75882500Y-67183000D01*
X75882500Y-67183000D02*
X74993500Y-67183000D01*
X71628000Y-69405500D02*
X71374000Y-69659500D01*
X71374000Y-69659500D02*
X71374000Y-72644000D01*
X77216000Y-60706000D02*
X78359000Y-59563000D01*
X76136500Y-60706000D02*
X77216000Y-60706000D01*
X75184000Y-61658500D02*
X76136500Y-60706000D01*
X68961000Y-63182500D02*
X70993000Y-63182500D01*
X68897500Y-63246000D02*
X68961000Y-63182500D01*
X66738500Y-63182500D02*
X66738500Y-63055500D01*
X64643000Y-65278000D02*
X66738500Y-63182500D01*
X74993500Y-53848000D02*
X74993500Y-53721000D01*
X75946000Y-54800500D02*
X74993500Y-53848000D01*
X75946000Y-57975500D02*
X75946000Y-54800500D01*
X74485500Y-59436000D02*
X75946000Y-57975500D01*
X69024500Y-61658500D02*
X70993000Y-61658500D01*
X68961000Y-61722000D02*
X69024500Y-61658500D01*
X63309500Y-61722000D02*
X66675000Y-61722000D01*
X62865000Y-62166500D02*
X63309500Y-61722000D01*
X77343000Y-81089500D02*
X76517500Y-81915000D01*
X76517500Y-81915000D02*
X76517500Y-82550000D01*
X76517500Y-82550000D02*
X75882500Y-83185000D01*
X74485500Y-82486500D02*
X74295000Y-82677000D01*
X74295000Y-82677000D02*
X74295000Y-85788500D01*
X79502000Y-78486000D02*
X78359000Y-77343000D01*
X79502000Y-83439000D02*
X79502000Y-78486000D01*
X79184500Y-83756500D02*
X79502000Y-83439000D01*
X71437500Y-86360000D02*
X72453500Y-87376000D01*
X71437500Y-80645000D02*
X71437500Y-86360000D01*
X70929500Y-80137000D02*
X71437500Y-80645000D01*
X70104000Y-80137000D02*
X70929500Y-80137000D01*
X69659500Y-80581500D02*
X70104000Y-80137000D01*
X70104000Y-68326000D02*
X70358000Y-68072000D01*
X70104000Y-69088000D02*
X70104000Y-68326000D01*
X68072000Y-71120000D02*
X70104000Y-69088000D01*
X73660000Y-59436000D02*
X73660000Y-57150000D01*
X73152000Y-59944000D02*
X73660000Y-59436000D01*
X73152000Y-63500000D02*
X73152000Y-59944000D01*
X72898000Y-63754000D02*
X73152000Y-63500000D01*
X72898000Y-78994000D02*
X72898000Y-63754000D01*
X73152000Y-79248000D02*
X72898000Y-78994000D01*
X72390000Y-74930000D02*
X72390000Y-86106000D01*
X70358000Y-72898000D02*
X72390000Y-74930000D01*
X65278000Y-72898000D02*
X70358000Y-72898000D01*
X65024000Y-72644000D02*
X65278000Y-72898000D01*
X76327000Y-90043000D02*
X78359000Y-90043000D01*
X74930000Y-88646000D02*
X76327000Y-90043000D01*
X74930000Y-83058000D02*
X74930000Y-88646000D01*
X75946000Y-82042000D02*
X74930000Y-83058000D01*
X75946000Y-72898000D02*
X75946000Y-82042000D01*
X75438000Y-72390000D02*
X75946000Y-72898000D01*
X78359000Y-67183000D02*
X77914500Y-67183000D01*
X77914500Y-67183000D02*
X76009500Y-69088000D01*
X76009500Y-69088000D02*
X76009500Y-72009000D01*
X76009500Y-72009000D02*
X76517500Y-72517000D01*
X76517500Y-72517000D02*
X76517500Y-80454500D01*
X76517500Y-80454500D02*
X76644500Y-80581500D01*
X75184000Y-80454500D02*
X74295000Y-81343500D01*
X74295000Y-81343500D02*
X74295000Y-81661000D01*
X75755500Y-84264500D02*
X75628500Y-84391500D01*
X75628500Y-84391500D02*
X75628500Y-88392000D01*
X75628500Y-88392000D02*
X76454000Y-89217500D01*
X77089000Y-90741500D02*
X75946000Y-91884500D01*
X75946000Y-91884500D02*
X75438000Y-91884500D01*
X75438000Y-91884500D02*
X74422000Y-92900500D01*
X74422000Y-92900500D02*
X74422000Y-103314500D01*
X74422000Y-103314500D02*
X74295000Y-103441500D01*
X74295000Y-103441500D02*
X74295000Y-108204000D01*
X74295000Y-108204000D02*
X75819000Y-109728000D01*
X75819000Y-109728000D02*
X75819000Y-114236500D01*
X75819000Y-114236500D02*
X75374500Y-114681000D01*
X75374500Y-114681000D02*
X75374500Y-116268500D01*
X75374500Y-116268500D02*
X76073000Y-116967000D01*
X76073000Y-116967000D02*
X77914500Y-116967000D01*
X78359000Y-69723000D02*
X78359000Y-70104000D01*
X78359000Y-70104000D02*
X77152500Y-71310500D01*
X77152500Y-71310500D02*
X77152500Y-73469500D01*
X77152500Y-73469500D02*
X77152500Y-75946000D01*
X77152500Y-75946000D02*
X77343000Y-76136500D01*
X77343000Y-76136500D02*
X78041500Y-76136500D01*
X78041500Y-76136500D02*
X78105000Y-76073000D01*
X78105000Y-76073000D02*
X79438500Y-76073000D01*
X79438500Y-76073000D02*
X80010000Y-76644500D01*
X80010000Y-76644500D02*
X80010000Y-93218000D01*
X80010000Y-93218000D02*
X79565500Y-93662500D01*
X79565500Y-93662500D02*
X79565500Y-118618000D01*
X79565500Y-118618000D02*
X78676500Y-119507000D01*
X78676500Y-119507000D02*
X77914500Y-119507000D01*
X75882500Y-97853500D02*
X78168500Y-97853500D01*
X75184000Y-98552000D02*
X75882500Y-97853500D01*
X75184000Y-101727000D02*
X75184000Y-98552000D01*
X75184000Y-106299000D02*
X75184000Y-101727000D01*
X76644500Y-107759500D02*
X75184000Y-106299000D01*
X76644500Y-110426500D02*
X76644500Y-107759500D01*
X76708000Y-110490000D02*
X76644500Y-110426500D01*
X73660000Y-124079000D02*
X73660000Y-122047000D01*
X74993500Y-125412500D02*
X73660000Y-124079000D01*
X78168500Y-97853500D02*
X78359000Y-97663000D01*
X64198500Y-122682000D02*
X64643000Y-123126500D01*
X64198500Y-122618500D02*
X64198500Y-122682000D01*
X63754000Y-122174000D02*
X64198500Y-122618500D01*
X63246000Y-122174000D02*
X63754000Y-122174000D01*
X60071000Y-118999000D02*
X63246000Y-122174000D01*
X60071000Y-115125500D02*
X60071000Y-118999000D01*
X59880500Y-114935000D02*
X60071000Y-115125500D01*
D20*
G36*
X54098352Y-115670339D02*
X54263099Y-115916901D01*
X62441290Y-124095092D01*
X62068059Y-124468323D01*
X61932974Y-124666026D01*
X61878490Y-124917188D01*
X61926014Y-125169759D01*
X62068059Y-125383941D01*
X62775166Y-126091048D01*
X62960253Y-126217513D01*
X63075686Y-126391568D01*
X63782793Y-127098675D01*
X63967880Y-127225140D01*
X64083313Y-127399195D01*
X64790420Y-128106302D01*
X64988123Y-128241387D01*
X65239285Y-128295871D01*
X65491856Y-128248347D01*
X65706038Y-128106302D01*
X67120251Y-126692089D01*
X67255336Y-126494386D01*
X67277337Y-126392965D01*
X67593401Y-126076901D01*
X67758148Y-125830339D01*
X67816000Y-125539500D01*
X67816000Y-125423859D01*
X68131494Y-125554863D01*
X68014092Y-125726686D01*
X67959608Y-125977848D01*
X68007132Y-126230419D01*
X68149177Y-126444601D01*
X69563391Y-127858815D01*
X69761094Y-127993900D01*
X70012256Y-128048384D01*
X70264827Y-128000860D01*
X70479009Y-127858815D01*
X71893223Y-126444601D01*
X72028308Y-126246898D01*
X72082792Y-125995736D01*
X72035268Y-125743165D01*
X71893223Y-125528983D01*
X70479009Y-124114769D01*
X70281306Y-123979684D01*
X70030144Y-123925200D01*
X69777573Y-123972724D01*
X69589192Y-124097658D01*
X69435390Y-123725430D01*
X69102335Y-123391793D01*
X68666955Y-123211008D01*
X68195533Y-123210596D01*
X67816000Y-123367416D01*
X67816000Y-121084511D01*
X67985532Y-121200348D01*
X68015625Y-121273000D01*
X68194254Y-121451628D01*
X68256438Y-121513812D01*
X68480944Y-121513812D01*
X69435008Y-120559748D01*
X69420865Y-120545606D01*
X69600471Y-120366000D01*
X69614613Y-120380143D01*
X70568677Y-119426079D01*
X70568677Y-119201573D01*
X70506493Y-119139389D01*
X70327865Y-118960760D01*
X70249959Y-118928491D01*
X70125455Y-118740758D01*
X69418348Y-118033651D01*
X69220645Y-117898566D01*
X68969483Y-117844082D01*
X68716912Y-117891606D01*
X68502730Y-118033651D01*
X68310342Y-118226040D01*
X68181622Y-118097320D01*
X68181662Y-118051833D01*
X68039617Y-117708057D01*
X67776827Y-117444808D01*
X67433299Y-117302162D01*
X67371500Y-117302108D01*
X67371500Y-116593340D01*
X67471099Y-116742401D01*
X68042599Y-117313901D01*
X68289161Y-117478648D01*
X68580000Y-117536500D01*
X71065537Y-117536500D01*
X71097673Y-117568692D01*
X71441201Y-117711338D01*
X71630000Y-117711502D01*
X71630000Y-118763639D01*
X71497352Y-118962161D01*
X71439500Y-119253000D01*
X71439500Y-119675314D01*
X71229627Y-119885187D01*
X71213601Y-119846496D01*
X71034972Y-119667868D01*
X70972788Y-119605684D01*
X70748282Y-119605684D01*
X69794218Y-120559748D01*
X69808361Y-120573890D01*
X69628755Y-120753496D01*
X69614613Y-120739353D01*
X68660549Y-121693417D01*
X68660549Y-121917923D01*
X68722733Y-121980107D01*
X68901361Y-122158736D01*
X68979269Y-122191006D01*
X69103772Y-122378737D01*
X69810879Y-123085844D01*
X70008582Y-123220929D01*
X70259744Y-123275413D01*
X70512315Y-123227889D01*
X70726497Y-123085844D01*
X72140710Y-121671631D01*
X72275795Y-121473928D01*
X72330279Y-121222766D01*
X72284571Y-120979847D01*
X72714796Y-120549622D01*
X72767352Y-120813839D01*
X72932099Y-121060401D01*
X73128317Y-121256619D01*
X72867808Y-121516673D01*
X72725162Y-121860201D01*
X72724838Y-122232167D01*
X72866883Y-122575943D01*
X72900000Y-122609118D01*
X72900000Y-124079000D01*
X72957852Y-124369839D01*
X73122599Y-124616401D01*
X74058378Y-125552180D01*
X74058338Y-125597667D01*
X74200383Y-125941443D01*
X74463173Y-126204692D01*
X74806701Y-126347338D01*
X75178667Y-126347662D01*
X75522443Y-126205617D01*
X75785692Y-125942827D01*
X75928338Y-125599299D01*
X75928662Y-125227333D01*
X75786617Y-124883557D01*
X75523827Y-124620308D01*
X75180299Y-124477662D01*
X75133423Y-124477621D01*
X74420000Y-123764198D01*
X74420000Y-122609463D01*
X74450607Y-122578909D01*
X74456099Y-122584401D01*
X74702660Y-122749148D01*
X74750914Y-122758746D01*
X74993500Y-122807000D01*
X76641546Y-122807000D01*
X76835353Y-123097054D01*
X77164526Y-123317000D01*
X76835353Y-123536946D01*
X76513446Y-124018715D01*
X76400407Y-124587000D01*
X76513446Y-125155285D01*
X76835353Y-125637054D01*
X77164526Y-125857000D01*
X76835353Y-126076946D01*
X76513446Y-126558715D01*
X76400407Y-127127000D01*
X76513446Y-127695285D01*
X76835353Y-128177054D01*
X76876952Y-128204850D01*
X76829183Y-128213838D01*
X76613059Y-128352910D01*
X76468069Y-128565110D01*
X76417060Y-128817000D01*
X76417060Y-130517000D01*
X76461338Y-130752317D01*
X76600410Y-130968441D01*
X76655365Y-131005990D01*
X76510976Y-131034711D01*
X75697954Y-131577954D01*
X75314059Y-132152495D01*
X75265000Y-132142560D01*
X72465000Y-132142560D01*
X72229683Y-132186838D01*
X72013559Y-132325910D01*
X71868569Y-132538110D01*
X71817560Y-132790000D01*
X71817560Y-135180000D01*
X61712440Y-135180000D01*
X61712440Y-132790000D01*
X61668162Y-132554683D01*
X61529090Y-132338559D01*
X61316890Y-132193569D01*
X61065000Y-132142560D01*
X58265000Y-132142560D01*
X58055627Y-132181956D01*
X57652046Y-131577954D01*
X56839024Y-131034711D01*
X55880000Y-130843949D01*
X54920976Y-131034711D01*
X54107954Y-131577954D01*
X54050000Y-131664688D01*
X54050000Y-115427259D01*
X54098352Y-115670339D01*
X54098352Y-115670339D01*
G37*
X54098352Y-115670339D02*
X54263099Y-115916901D01*
X62441290Y-124095092D01*
X62068059Y-124468323D01*
X61932974Y-124666026D01*
X61878490Y-124917188D01*
X61926014Y-125169759D01*
X62068059Y-125383941D01*
X62775166Y-126091048D01*
X62960253Y-126217513D01*
X63075686Y-126391568D01*
X63782793Y-127098675D01*
X63967880Y-127225140D01*
X64083313Y-127399195D01*
X64790420Y-128106302D01*
X64988123Y-128241387D01*
X65239285Y-128295871D01*
X65491856Y-128248347D01*
X65706038Y-128106302D01*
X67120251Y-126692089D01*
X67255336Y-126494386D01*
X67277337Y-126392965D01*
X67593401Y-126076901D01*
X67758148Y-125830339D01*
X67816000Y-125539500D01*
X67816000Y-125423859D01*
X68131494Y-125554863D01*
X68014092Y-125726686D01*
X67959608Y-125977848D01*
X68007132Y-126230419D01*
X68149177Y-126444601D01*
X69563391Y-127858815D01*
X69761094Y-127993900D01*
X70012256Y-128048384D01*
X70264827Y-128000860D01*
X70479009Y-127858815D01*
X71893223Y-126444601D01*
X72028308Y-126246898D01*
X72082792Y-125995736D01*
X72035268Y-125743165D01*
X71893223Y-125528983D01*
X70479009Y-124114769D01*
X70281306Y-123979684D01*
X70030144Y-123925200D01*
X69777573Y-123972724D01*
X69589192Y-124097658D01*
X69435390Y-123725430D01*
X69102335Y-123391793D01*
X68666955Y-123211008D01*
X68195533Y-123210596D01*
X67816000Y-123367416D01*
X67816000Y-121084511D01*
X67985532Y-121200348D01*
X68015625Y-121273000D01*
X68194254Y-121451628D01*
X68256438Y-121513812D01*
X68480944Y-121513812D01*
X69435008Y-120559748D01*
X69420865Y-120545606D01*
X69600471Y-120366000D01*
X69614613Y-120380143D01*
X70568677Y-119426079D01*
X70568677Y-119201573D01*
X70506493Y-119139389D01*
X70327865Y-118960760D01*
X70249959Y-118928491D01*
X70125455Y-118740758D01*
X69418348Y-118033651D01*
X69220645Y-117898566D01*
X68969483Y-117844082D01*
X68716912Y-117891606D01*
X68502730Y-118033651D01*
X68310342Y-118226040D01*
X68181622Y-118097320D01*
X68181662Y-118051833D01*
X68039617Y-117708057D01*
X67776827Y-117444808D01*
X67433299Y-117302162D01*
X67371500Y-117302108D01*
X67371500Y-116593340D01*
X67471099Y-116742401D01*
X68042599Y-117313901D01*
X68289161Y-117478648D01*
X68580000Y-117536500D01*
X71065537Y-117536500D01*
X71097673Y-117568692D01*
X71441201Y-117711338D01*
X71630000Y-117711502D01*
X71630000Y-118763639D01*
X71497352Y-118962161D01*
X71439500Y-119253000D01*
X71439500Y-119675314D01*
X71229627Y-119885187D01*
X71213601Y-119846496D01*
X71034972Y-119667868D01*
X70972788Y-119605684D01*
X70748282Y-119605684D01*
X69794218Y-120559748D01*
X69808361Y-120573890D01*
X69628755Y-120753496D01*
X69614613Y-120739353D01*
X68660549Y-121693417D01*
X68660549Y-121917923D01*
X68722733Y-121980107D01*
X68901361Y-122158736D01*
X68979269Y-122191006D01*
X69103772Y-122378737D01*
X69810879Y-123085844D01*
X70008582Y-123220929D01*
X70259744Y-123275413D01*
X70512315Y-123227889D01*
X70726497Y-123085844D01*
X72140710Y-121671631D01*
X72275795Y-121473928D01*
X72330279Y-121222766D01*
X72284571Y-120979847D01*
X72714796Y-120549622D01*
X72767352Y-120813839D01*
X72932099Y-121060401D01*
X73128317Y-121256619D01*
X72867808Y-121516673D01*
X72725162Y-121860201D01*
X72724838Y-122232167D01*
X72866883Y-122575943D01*
X72900000Y-122609118D01*
X72900000Y-124079000D01*
X72957852Y-124369839D01*
X73122599Y-124616401D01*
X74058378Y-125552180D01*
X74058338Y-125597667D01*
X74200383Y-125941443D01*
X74463173Y-126204692D01*
X74806701Y-126347338D01*
X75178667Y-126347662D01*
X75522443Y-126205617D01*
X75785692Y-125942827D01*
X75928338Y-125599299D01*
X75928662Y-125227333D01*
X75786617Y-124883557D01*
X75523827Y-124620308D01*
X75180299Y-124477662D01*
X75133423Y-124477621D01*
X74420000Y-123764198D01*
X74420000Y-122609463D01*
X74450607Y-122578909D01*
X74456099Y-122584401D01*
X74702660Y-122749148D01*
X74750914Y-122758746D01*
X74993500Y-122807000D01*
X76641546Y-122807000D01*
X76835353Y-123097054D01*
X77164526Y-123317000D01*
X76835353Y-123536946D01*
X76513446Y-124018715D01*
X76400407Y-124587000D01*
X76513446Y-125155285D01*
X76835353Y-125637054D01*
X77164526Y-125857000D01*
X76835353Y-126076946D01*
X76513446Y-126558715D01*
X76400407Y-127127000D01*
X76513446Y-127695285D01*
X76835353Y-128177054D01*
X76876952Y-128204850D01*
X76829183Y-128213838D01*
X76613059Y-128352910D01*
X76468069Y-128565110D01*
X76417060Y-128817000D01*
X76417060Y-130517000D01*
X76461338Y-130752317D01*
X76600410Y-130968441D01*
X76655365Y-131005990D01*
X76510976Y-131034711D01*
X75697954Y-131577954D01*
X75314059Y-132152495D01*
X75265000Y-132142560D01*
X72465000Y-132142560D01*
X72229683Y-132186838D01*
X72013559Y-132325910D01*
X71868569Y-132538110D01*
X71817560Y-132790000D01*
X71817560Y-135180000D01*
X61712440Y-135180000D01*
X61712440Y-132790000D01*
X61668162Y-132554683D01*
X61529090Y-132338559D01*
X61316890Y-132193569D01*
X61065000Y-132142560D01*
X58265000Y-132142560D01*
X58055627Y-132181956D01*
X57652046Y-131577954D01*
X56839024Y-131034711D01*
X55880000Y-130843949D01*
X54920976Y-131034711D01*
X54107954Y-131577954D01*
X54050000Y-131664688D01*
X54050000Y-115427259D01*
X54098352Y-115670339D01*
G36*
X63051852Y-73442839D02*
X63216599Y-73689401D01*
X63470599Y-73943401D01*
X63717160Y-74108148D01*
X64008000Y-74166000D01*
X68011198Y-74166000D01*
X68074000Y-74228802D01*
X68074000Y-80469560D01*
X67909000Y-80469560D01*
X67673683Y-80513838D01*
X67457559Y-80652910D01*
X67312569Y-80865110D01*
X67261560Y-81117000D01*
X67261560Y-82967000D01*
X67305838Y-83202317D01*
X67444910Y-83418441D01*
X67626874Y-83542771D01*
X67512268Y-83657177D01*
X67274272Y-84230336D01*
X67273730Y-84850942D01*
X67510725Y-85424514D01*
X67820000Y-85734329D01*
X67820000Y-99253198D01*
X64486599Y-102586599D01*
X64321852Y-102833161D01*
X64264000Y-103124000D01*
X64264000Y-105095198D01*
X62227599Y-107131599D01*
X62062852Y-107378161D01*
X62005000Y-107669000D01*
X62005000Y-109242560D01*
X61365000Y-109242560D01*
X61129683Y-109286838D01*
X61066433Y-109327538D01*
X60891310Y-109255000D01*
X59650750Y-109255000D01*
X59492000Y-109413750D01*
X59492000Y-111163000D01*
X59512000Y-111163000D01*
X59512000Y-111417000D01*
X59492000Y-111417000D01*
X59492000Y-113166250D01*
X59650750Y-113325000D01*
X60891310Y-113325000D01*
X61064541Y-113253245D01*
X61113110Y-113286431D01*
X61365000Y-113337440D01*
X64165000Y-113337440D01*
X64400317Y-113293162D01*
X64616441Y-113154090D01*
X64761431Y-112941890D01*
X64812440Y-112690000D01*
X64812440Y-110027872D01*
X65145667Y-110028162D01*
X65489443Y-109886117D01*
X65752692Y-109623327D01*
X65895338Y-109279799D01*
X65895662Y-108907833D01*
X65753617Y-108564057D01*
X65657000Y-108467271D01*
X65657000Y-107883802D01*
X66343587Y-107197215D01*
X66453383Y-107462943D01*
X66486500Y-107496118D01*
X66486500Y-109921198D01*
X66074099Y-110333599D01*
X65909352Y-110580161D01*
X65851500Y-110871000D01*
X65851500Y-119345839D01*
X64680733Y-118175072D01*
X64483030Y-118039987D01*
X64231868Y-117985503D01*
X63979297Y-118033027D01*
X63765115Y-118175072D01*
X62350901Y-119589286D01*
X62215816Y-119786989D01*
X62165543Y-120018741D01*
X60831000Y-118684198D01*
X60831000Y-118028888D01*
X61145167Y-118029162D01*
X61488943Y-117887117D01*
X61752192Y-117624327D01*
X61894838Y-117280799D01*
X61895162Y-116908833D01*
X61847000Y-116792272D01*
X61847000Y-115751463D01*
X61879192Y-115719327D01*
X62021838Y-115375799D01*
X62022162Y-115003833D01*
X61880117Y-114660057D01*
X61617327Y-114396808D01*
X61273799Y-114254162D01*
X60901833Y-114253838D01*
X60632681Y-114365049D01*
X60410827Y-114142808D01*
X60067299Y-114000162D01*
X59695333Y-113999838D01*
X59351557Y-114141883D01*
X59088308Y-114404673D01*
X58945662Y-114748201D01*
X58945338Y-115120167D01*
X59087383Y-115463943D01*
X59311000Y-115687951D01*
X59311000Y-118815198D01*
X55560500Y-115064698D01*
X55560500Y-111575750D01*
X57330000Y-111575750D01*
X57330000Y-112816309D01*
X57426673Y-113049698D01*
X57605301Y-113228327D01*
X57838690Y-113325000D01*
X59079250Y-113325000D01*
X59238000Y-113166250D01*
X59238000Y-111417000D01*
X57488750Y-111417000D01*
X57330000Y-111575750D01*
X55560500Y-111575750D01*
X55560500Y-109979302D01*
X55776111Y-109763691D01*
X57330000Y-109763691D01*
X57330000Y-111004250D01*
X57488750Y-111163000D01*
X59238000Y-111163000D01*
X59238000Y-109413750D01*
X59079250Y-109255000D01*
X57838690Y-109255000D01*
X57605301Y-109351673D01*
X57426673Y-109530302D01*
X57330000Y-109763691D01*
X55776111Y-109763691D01*
X58131901Y-107407901D01*
X58296648Y-107161339D01*
X58354500Y-106870500D01*
X58354500Y-105597802D01*
X60735401Y-103216901D01*
X60900148Y-102970339D01*
X60958000Y-102679500D01*
X60958000Y-101019463D01*
X60990192Y-100987327D01*
X61132838Y-100643799D01*
X61133162Y-100271833D01*
X60991117Y-99928057D01*
X60728327Y-99664808D01*
X60384799Y-99522162D01*
X60012833Y-99521838D01*
X59669057Y-99663883D01*
X59405808Y-99926673D01*
X59263162Y-100270201D01*
X59262838Y-100642167D01*
X59404883Y-100985943D01*
X59438000Y-101019118D01*
X59438000Y-102069953D01*
X59340117Y-101833057D01*
X59077327Y-101569808D01*
X58926000Y-101506971D01*
X58926000Y-95948500D01*
X58868148Y-95657661D01*
X58868148Y-95657660D01*
X58703401Y-95411099D01*
X57877901Y-94585599D01*
X57631339Y-94420852D01*
X57340500Y-94363000D01*
X56696531Y-94363000D01*
X56684010Y-94332697D01*
X56291370Y-93939371D01*
X56083488Y-93853051D01*
X56289303Y-93768010D01*
X56682629Y-93375370D01*
X56895757Y-92862100D01*
X56896242Y-92306339D01*
X56684010Y-91792697D01*
X56291370Y-91399371D01*
X56083488Y-91313051D01*
X56289303Y-91228010D01*
X56682629Y-90835370D01*
X56895757Y-90322100D01*
X56896242Y-89766339D01*
X56684010Y-89252697D01*
X56291370Y-88859371D01*
X56083488Y-88773051D01*
X56289303Y-88688010D01*
X56682629Y-88295370D01*
X56895757Y-87782100D01*
X56896242Y-87226339D01*
X56684010Y-86712697D01*
X56291370Y-86319371D01*
X56083488Y-86233051D01*
X56289303Y-86148010D01*
X56682629Y-85755370D01*
X56895757Y-85242100D01*
X56896242Y-84686339D01*
X56734327Y-84294475D01*
X60735401Y-80293401D01*
X60900148Y-80046839D01*
X60958000Y-79756000D01*
X60958000Y-75498802D01*
X63045566Y-73411236D01*
X63051852Y-73442839D01*
X63051852Y-73442839D01*
G37*
X63051852Y-73442839D02*
X63216599Y-73689401D01*
X63470599Y-73943401D01*
X63717160Y-74108148D01*
X64008000Y-74166000D01*
X68011198Y-74166000D01*
X68074000Y-74228802D01*
X68074000Y-80469560D01*
X67909000Y-80469560D01*
X67673683Y-80513838D01*
X67457559Y-80652910D01*
X67312569Y-80865110D01*
X67261560Y-81117000D01*
X67261560Y-82967000D01*
X67305838Y-83202317D01*
X67444910Y-83418441D01*
X67626874Y-83542771D01*
X67512268Y-83657177D01*
X67274272Y-84230336D01*
X67273730Y-84850942D01*
X67510725Y-85424514D01*
X67820000Y-85734329D01*
X67820000Y-99253198D01*
X64486599Y-102586599D01*
X64321852Y-102833161D01*
X64264000Y-103124000D01*
X64264000Y-105095198D01*
X62227599Y-107131599D01*
X62062852Y-107378161D01*
X62005000Y-107669000D01*
X62005000Y-109242560D01*
X61365000Y-109242560D01*
X61129683Y-109286838D01*
X61066433Y-109327538D01*
X60891310Y-109255000D01*
X59650750Y-109255000D01*
X59492000Y-109413750D01*
X59492000Y-111163000D01*
X59512000Y-111163000D01*
X59512000Y-111417000D01*
X59492000Y-111417000D01*
X59492000Y-113166250D01*
X59650750Y-113325000D01*
X60891310Y-113325000D01*
X61064541Y-113253245D01*
X61113110Y-113286431D01*
X61365000Y-113337440D01*
X64165000Y-113337440D01*
X64400317Y-113293162D01*
X64616441Y-113154090D01*
X64761431Y-112941890D01*
X64812440Y-112690000D01*
X64812440Y-110027872D01*
X65145667Y-110028162D01*
X65489443Y-109886117D01*
X65752692Y-109623327D01*
X65895338Y-109279799D01*
X65895662Y-108907833D01*
X65753617Y-108564057D01*
X65657000Y-108467271D01*
X65657000Y-107883802D01*
X66343587Y-107197215D01*
X66453383Y-107462943D01*
X66486500Y-107496118D01*
X66486500Y-109921198D01*
X66074099Y-110333599D01*
X65909352Y-110580161D01*
X65851500Y-110871000D01*
X65851500Y-119345839D01*
X64680733Y-118175072D01*
X64483030Y-118039987D01*
X64231868Y-117985503D01*
X63979297Y-118033027D01*
X63765115Y-118175072D01*
X62350901Y-119589286D01*
X62215816Y-119786989D01*
X62165543Y-120018741D01*
X60831000Y-118684198D01*
X60831000Y-118028888D01*
X61145167Y-118029162D01*
X61488943Y-117887117D01*
X61752192Y-117624327D01*
X61894838Y-117280799D01*
X61895162Y-116908833D01*
X61847000Y-116792272D01*
X61847000Y-115751463D01*
X61879192Y-115719327D01*
X62021838Y-115375799D01*
X62022162Y-115003833D01*
X61880117Y-114660057D01*
X61617327Y-114396808D01*
X61273799Y-114254162D01*
X60901833Y-114253838D01*
X60632681Y-114365049D01*
X60410827Y-114142808D01*
X60067299Y-114000162D01*
X59695333Y-113999838D01*
X59351557Y-114141883D01*
X59088308Y-114404673D01*
X58945662Y-114748201D01*
X58945338Y-115120167D01*
X59087383Y-115463943D01*
X59311000Y-115687951D01*
X59311000Y-118815198D01*
X55560500Y-115064698D01*
X55560500Y-111575750D01*
X57330000Y-111575750D01*
X57330000Y-112816309D01*
X57426673Y-113049698D01*
X57605301Y-113228327D01*
X57838690Y-113325000D01*
X59079250Y-113325000D01*
X59238000Y-113166250D01*
X59238000Y-111417000D01*
X57488750Y-111417000D01*
X57330000Y-111575750D01*
X55560500Y-111575750D01*
X55560500Y-109979302D01*
X55776111Y-109763691D01*
X57330000Y-109763691D01*
X57330000Y-111004250D01*
X57488750Y-111163000D01*
X59238000Y-111163000D01*
X59238000Y-109413750D01*
X59079250Y-109255000D01*
X57838690Y-109255000D01*
X57605301Y-109351673D01*
X57426673Y-109530302D01*
X57330000Y-109763691D01*
X55776111Y-109763691D01*
X58131901Y-107407901D01*
X58296648Y-107161339D01*
X58354500Y-106870500D01*
X58354500Y-105597802D01*
X60735401Y-103216901D01*
X60900148Y-102970339D01*
X60958000Y-102679500D01*
X60958000Y-101019463D01*
X60990192Y-100987327D01*
X61132838Y-100643799D01*
X61133162Y-100271833D01*
X60991117Y-99928057D01*
X60728327Y-99664808D01*
X60384799Y-99522162D01*
X60012833Y-99521838D01*
X59669057Y-99663883D01*
X59405808Y-99926673D01*
X59263162Y-100270201D01*
X59262838Y-100642167D01*
X59404883Y-100985943D01*
X59438000Y-101019118D01*
X59438000Y-102069953D01*
X59340117Y-101833057D01*
X59077327Y-101569808D01*
X58926000Y-101506971D01*
X58926000Y-95948500D01*
X58868148Y-95657661D01*
X58868148Y-95657660D01*
X58703401Y-95411099D01*
X57877901Y-94585599D01*
X57631339Y-94420852D01*
X57340500Y-94363000D01*
X56696531Y-94363000D01*
X56684010Y-94332697D01*
X56291370Y-93939371D01*
X56083488Y-93853051D01*
X56289303Y-93768010D01*
X56682629Y-93375370D01*
X56895757Y-92862100D01*
X56896242Y-92306339D01*
X56684010Y-91792697D01*
X56291370Y-91399371D01*
X56083488Y-91313051D01*
X56289303Y-91228010D01*
X56682629Y-90835370D01*
X56895757Y-90322100D01*
X56896242Y-89766339D01*
X56684010Y-89252697D01*
X56291370Y-88859371D01*
X56083488Y-88773051D01*
X56289303Y-88688010D01*
X56682629Y-88295370D01*
X56895757Y-87782100D01*
X56896242Y-87226339D01*
X56684010Y-86712697D01*
X56291370Y-86319371D01*
X56083488Y-86233051D01*
X56289303Y-86148010D01*
X56682629Y-85755370D01*
X56895757Y-85242100D01*
X56896242Y-84686339D01*
X56734327Y-84294475D01*
X60735401Y-80293401D01*
X60900148Y-80046839D01*
X60958000Y-79756000D01*
X60958000Y-75498802D01*
X63045566Y-73411236D01*
X63051852Y-73442839D01*
G36*
X55511700Y-49053750D02*
X55670450Y-49212500D01*
X56654700Y-49212500D01*
X56654700Y-49192500D01*
X56908700Y-49192500D01*
X56908700Y-49212500D01*
X57892950Y-49212500D01*
X58051700Y-49053750D01*
X58051700Y-47700000D01*
X59804300Y-47700000D01*
X59804300Y-49053750D01*
X59963050Y-49212500D01*
X60947300Y-49212500D01*
X60947300Y-49192500D01*
X61201300Y-49192500D01*
X61201300Y-49212500D01*
X61221300Y-49212500D01*
X61221300Y-49466500D01*
X61201300Y-49466500D01*
X61201300Y-51911250D01*
X61360050Y-52070000D01*
X61835609Y-52070000D01*
X62068998Y-51973327D01*
X62247627Y-51794699D01*
X62344300Y-51561310D01*
X62344300Y-49625250D01*
X62185552Y-49466502D01*
X62256298Y-49466502D01*
X62260857Y-49482397D01*
X62784302Y-49669144D01*
X62857400Y-49665485D01*
X62643059Y-49803410D01*
X62498069Y-50015610D01*
X62447060Y-50267500D01*
X62447060Y-51967500D01*
X62491338Y-52202817D01*
X62630410Y-52418941D01*
X62842610Y-52563931D01*
X63094500Y-52614940D01*
X64794500Y-52614940D01*
X65029817Y-52570662D01*
X65245941Y-52431590D01*
X65390931Y-52219390D01*
X65441940Y-51967500D01*
X65441940Y-51941000D01*
X68008500Y-51941000D01*
X68086910Y-51925403D01*
X68384167Y-51925662D01*
X68727943Y-51783617D01*
X68836000Y-51675748D01*
X68836000Y-52009198D01*
X68773198Y-52072000D01*
X68072000Y-52072000D01*
X67829414Y-52120254D01*
X67781160Y-52129852D01*
X67534599Y-52294599D01*
X66233198Y-53596000D01*
X64008000Y-53596000D01*
X63717161Y-53653852D01*
X63703720Y-53662833D01*
X63470599Y-53818599D01*
X63185198Y-54104000D01*
X61782802Y-54104000D01*
X61497401Y-53818599D01*
X61250839Y-53653852D01*
X60960000Y-53596000D01*
X58819547Y-53596000D01*
X58705117Y-53319057D01*
X58442327Y-53055808D01*
X58098799Y-52913162D01*
X57726833Y-52912838D01*
X57383057Y-53054883D01*
X57119808Y-53317673D01*
X56977162Y-53661201D01*
X56976838Y-54033167D01*
X57118883Y-54376943D01*
X57381673Y-54640192D01*
X57725201Y-54782838D01*
X57772077Y-54782879D01*
X57882599Y-54893401D01*
X58129161Y-55058148D01*
X58420000Y-55116000D01*
X60645198Y-55116000D01*
X60930599Y-55401401D01*
X61177161Y-55566148D01*
X61468000Y-55624000D01*
X63500000Y-55624000D01*
X63790839Y-55566148D01*
X64037401Y-55401401D01*
X64322802Y-55116000D01*
X66548000Y-55116000D01*
X66838839Y-55058148D01*
X67085401Y-54893401D01*
X68386802Y-53592000D01*
X69088000Y-53592000D01*
X69378839Y-53534148D01*
X69625401Y-53369401D01*
X70133401Y-52861401D01*
X70210436Y-52746110D01*
X70298148Y-52614839D01*
X70356000Y-52324000D01*
X70356000Y-50988500D01*
X70421500Y-50988500D01*
X70712339Y-50930648D01*
X70958901Y-50765901D01*
X71326638Y-50398164D01*
X71344711Y-50489024D01*
X71887954Y-51302046D01*
X72461753Y-51685445D01*
X71090599Y-53056599D01*
X70925852Y-53303161D01*
X70868000Y-53594000D01*
X70868000Y-60723390D01*
X70807833Y-60723338D01*
X70464057Y-60865383D01*
X70430882Y-60898500D01*
X69415929Y-60898500D01*
X69147799Y-60787162D01*
X68775833Y-60786838D01*
X68432057Y-60928883D01*
X68324000Y-61036752D01*
X68324000Y-59998463D01*
X68356192Y-59966327D01*
X68498838Y-59622799D01*
X68499162Y-59250833D01*
X68357117Y-58907057D01*
X68094327Y-58643808D01*
X67750799Y-58501162D01*
X67378833Y-58500838D01*
X67035057Y-58642883D01*
X66771808Y-58905673D01*
X66629162Y-59249201D01*
X66628838Y-59621167D01*
X66770883Y-59964943D01*
X66804000Y-59998118D01*
X66804000Y-60787112D01*
X66489833Y-60786838D01*
X66146057Y-60928883D01*
X66112882Y-60962000D01*
X63309500Y-60962000D01*
X63018661Y-61019852D01*
X62772099Y-61184599D01*
X62725320Y-61231378D01*
X62679833Y-61231338D01*
X62336057Y-61373383D01*
X62072808Y-61636173D01*
X61930162Y-61979701D01*
X61929838Y-62351667D01*
X62071883Y-62695443D01*
X62334673Y-62958692D01*
X62678201Y-63101338D01*
X63050167Y-63101662D01*
X63393943Y-62959617D01*
X63657192Y-62696827D01*
X63746396Y-62482000D01*
X65989556Y-62482000D01*
X65946308Y-62525173D01*
X65803662Y-62868701D01*
X65803510Y-63042688D01*
X64503320Y-64342878D01*
X64457833Y-64342838D01*
X64114057Y-64484883D01*
X63850808Y-64747673D01*
X63708162Y-65091201D01*
X63707838Y-65463167D01*
X63849883Y-65806943D01*
X64112673Y-66070192D01*
X64456201Y-66212838D01*
X64828167Y-66213162D01*
X65171943Y-66071117D01*
X65435192Y-65808327D01*
X65577838Y-65464799D01*
X65577879Y-65417923D01*
X66804000Y-64191802D01*
X66804000Y-67503198D01*
X59660599Y-74646599D01*
X59495852Y-74893161D01*
X59438000Y-75184000D01*
X59438000Y-79441198D01*
X56857869Y-82021329D01*
X56721397Y-81691857D01*
X56479213Y-81622392D01*
X55678605Y-82423000D01*
X55692748Y-82437143D01*
X55513143Y-82616748D01*
X55499000Y-82602605D01*
X54698392Y-83403213D01*
X54767857Y-83645397D01*
X54908318Y-83695509D01*
X54708697Y-83777990D01*
X54315371Y-84170630D01*
X54102243Y-84683900D01*
X54101758Y-85239661D01*
X54313990Y-85753303D01*
X54706630Y-86146629D01*
X54914512Y-86232949D01*
X54708697Y-86317990D01*
X54315371Y-86710630D01*
X54102243Y-87223900D01*
X54101758Y-87779661D01*
X54313990Y-88293303D01*
X54706630Y-88686629D01*
X54914512Y-88772949D01*
X54708697Y-88857990D01*
X54315371Y-89250630D01*
X54102243Y-89763900D01*
X54101758Y-90319661D01*
X54313990Y-90833303D01*
X54706630Y-91226629D01*
X54914512Y-91312949D01*
X54708697Y-91397990D01*
X54315371Y-91790630D01*
X54102243Y-92303900D01*
X54101758Y-92859661D01*
X54313990Y-93373303D01*
X54706630Y-93766629D01*
X54914512Y-93852949D01*
X54708697Y-93937990D01*
X54315371Y-94330630D01*
X54102243Y-94843900D01*
X54101758Y-95399661D01*
X54313990Y-95913303D01*
X54706630Y-96306629D01*
X54914512Y-96392949D01*
X54708697Y-96477990D01*
X54315371Y-96870630D01*
X54102243Y-97383900D01*
X54101758Y-97939661D01*
X54115143Y-97972055D01*
X54050000Y-98037198D01*
X54050000Y-82215302D01*
X54089856Y-82215302D01*
X54117638Y-82770368D01*
X54276603Y-83154143D01*
X54518787Y-83223608D01*
X55319395Y-82423000D01*
X54518787Y-81622392D01*
X54276603Y-81691857D01*
X54089856Y-82215302D01*
X54050000Y-82215302D01*
X54050000Y-57299661D01*
X54101758Y-57299661D01*
X54313990Y-57813303D01*
X54706630Y-58206629D01*
X54914512Y-58292949D01*
X54708697Y-58377990D01*
X54315371Y-58770630D01*
X54102243Y-59283900D01*
X54101758Y-59839661D01*
X54313990Y-60353303D01*
X54706630Y-60746629D01*
X54914512Y-60832949D01*
X54708697Y-60917990D01*
X54315371Y-61310630D01*
X54102243Y-61823900D01*
X54101758Y-62379661D01*
X54313990Y-62893303D01*
X54706630Y-63286629D01*
X54914512Y-63372949D01*
X54708697Y-63457990D01*
X54315371Y-63850630D01*
X54102243Y-64363900D01*
X54101758Y-64919661D01*
X54313990Y-65433303D01*
X54706630Y-65826629D01*
X54914512Y-65912949D01*
X54708697Y-65997990D01*
X54315371Y-66390630D01*
X54102243Y-66903900D01*
X54101758Y-67459661D01*
X54313990Y-67973303D01*
X54706630Y-68366629D01*
X54914512Y-68452949D01*
X54708697Y-68537990D01*
X54315371Y-68930630D01*
X54102243Y-69443900D01*
X54101758Y-69999661D01*
X54313990Y-70513303D01*
X54706630Y-70906629D01*
X54914512Y-70992949D01*
X54708697Y-71077990D01*
X54315371Y-71470630D01*
X54102243Y-71983900D01*
X54101758Y-72539661D01*
X54313990Y-73053303D01*
X54706630Y-73446629D01*
X54914512Y-73532949D01*
X54708697Y-73617990D01*
X54315371Y-74010630D01*
X54102243Y-74523900D01*
X54101758Y-75079661D01*
X54313990Y-75593303D01*
X54706630Y-75986629D01*
X54914512Y-76072949D01*
X54708697Y-76157990D01*
X54315371Y-76550630D01*
X54102243Y-77063900D01*
X54101758Y-77619661D01*
X54313990Y-78133303D01*
X54706630Y-78526629D01*
X54914512Y-78612949D01*
X54708697Y-78697990D01*
X54315371Y-79090630D01*
X54102243Y-79603900D01*
X54101758Y-80159661D01*
X54313990Y-80673303D01*
X54706630Y-81066629D01*
X54898727Y-81146395D01*
X54767857Y-81200603D01*
X54698392Y-81442787D01*
X55499000Y-82243395D01*
X56299608Y-81442787D01*
X56230143Y-81200603D01*
X56089682Y-81150491D01*
X56289303Y-81068010D01*
X56682629Y-80675370D01*
X56895757Y-80162100D01*
X56896242Y-79606339D01*
X56684010Y-79092697D01*
X56291370Y-78699371D01*
X56083488Y-78613051D01*
X56289303Y-78528010D01*
X56682629Y-78135370D01*
X56895757Y-77622100D01*
X56896242Y-77066339D01*
X56684010Y-76552697D01*
X56291370Y-76159371D01*
X56083488Y-76073051D01*
X56289303Y-75988010D01*
X56682629Y-75595370D01*
X56895757Y-75082100D01*
X56896242Y-74526339D01*
X56684010Y-74012697D01*
X56291370Y-73619371D01*
X56083488Y-73533051D01*
X56289303Y-73448010D01*
X56682629Y-73055370D01*
X56895757Y-72542100D01*
X56896242Y-71986339D01*
X56684010Y-71472697D01*
X56291370Y-71079371D01*
X56083488Y-70993051D01*
X56289303Y-70908010D01*
X56682629Y-70515370D01*
X56895757Y-70002100D01*
X56896242Y-69446339D01*
X56684010Y-68932697D01*
X56291370Y-68539371D01*
X56083488Y-68453051D01*
X56289303Y-68368010D01*
X56682629Y-67975370D01*
X56895757Y-67462100D01*
X56896242Y-66906339D01*
X56684010Y-66392697D01*
X56291370Y-65999371D01*
X56083488Y-65913051D01*
X56289303Y-65828010D01*
X56682629Y-65435370D01*
X56895757Y-64922100D01*
X56896242Y-64366339D01*
X56684010Y-63852697D01*
X56291370Y-63459371D01*
X56083488Y-63373051D01*
X56289303Y-63288010D01*
X56682629Y-62895370D01*
X56895757Y-62382100D01*
X56896242Y-61826339D01*
X56684010Y-61312697D01*
X56291370Y-60919371D01*
X56083488Y-60833051D01*
X56289303Y-60748010D01*
X56682629Y-60355370D01*
X56895757Y-59842100D01*
X56896242Y-59286339D01*
X56684010Y-58772697D01*
X56291370Y-58379371D01*
X56083488Y-58293051D01*
X56289303Y-58208010D01*
X56682629Y-57815370D01*
X56895757Y-57302100D01*
X56896242Y-56746339D01*
X56684010Y-56232697D01*
X56291370Y-55839371D01*
X55778100Y-55626243D01*
X55222339Y-55625758D01*
X54708697Y-55837990D01*
X54315371Y-56230630D01*
X54102243Y-56743900D01*
X54101758Y-57299661D01*
X54050000Y-57299661D01*
X54050000Y-55137149D01*
X54057910Y-55149441D01*
X54270110Y-55294431D01*
X54522000Y-55345440D01*
X56222000Y-55345440D01*
X56457317Y-55301162D01*
X56673441Y-55162090D01*
X56818431Y-54949890D01*
X56869440Y-54698000D01*
X56869440Y-52998000D01*
X56825162Y-52762683D01*
X56686090Y-52546559D01*
X56473890Y-52401569D01*
X56222000Y-52350560D01*
X54522000Y-52350560D01*
X54286683Y-52394838D01*
X54070559Y-52533910D01*
X54050000Y-52563999D01*
X54050000Y-49625250D01*
X55511700Y-49625250D01*
X55511700Y-51561310D01*
X55608373Y-51794699D01*
X55787002Y-51973327D01*
X56020391Y-52070000D01*
X56495950Y-52070000D01*
X56654700Y-51911250D01*
X56654700Y-49466500D01*
X56908700Y-49466500D01*
X56908700Y-51911250D01*
X57067450Y-52070000D01*
X57543009Y-52070000D01*
X57776398Y-51973327D01*
X57955027Y-51794699D01*
X58051700Y-51561310D01*
X58051700Y-49625250D01*
X59804300Y-49625250D01*
X59804300Y-51561310D01*
X59900973Y-51794699D01*
X60079602Y-51973327D01*
X60312991Y-52070000D01*
X60788550Y-52070000D01*
X60947300Y-51911250D01*
X60947300Y-49466500D01*
X59963050Y-49466500D01*
X59804300Y-49625250D01*
X58051700Y-49625250D01*
X57892950Y-49466500D01*
X56908700Y-49466500D01*
X56654700Y-49466500D01*
X55670450Y-49466500D01*
X55511700Y-49625250D01*
X54050000Y-49625250D01*
X54050000Y-47700000D01*
X55511700Y-47700000D01*
X55511700Y-49053750D01*
X55511700Y-49053750D01*
G37*
X55511700Y-49053750D02*
X55670450Y-49212500D01*
X56654700Y-49212500D01*
X56654700Y-49192500D01*
X56908700Y-49192500D01*
X56908700Y-49212500D01*
X57892950Y-49212500D01*
X58051700Y-49053750D01*
X58051700Y-47700000D01*
X59804300Y-47700000D01*
X59804300Y-49053750D01*
X59963050Y-49212500D01*
X60947300Y-49212500D01*
X60947300Y-49192500D01*
X61201300Y-49192500D01*
X61201300Y-49212500D01*
X61221300Y-49212500D01*
X61221300Y-49466500D01*
X61201300Y-49466500D01*
X61201300Y-51911250D01*
X61360050Y-52070000D01*
X61835609Y-52070000D01*
X62068998Y-51973327D01*
X62247627Y-51794699D01*
X62344300Y-51561310D01*
X62344300Y-49625250D01*
X62185552Y-49466502D01*
X62256298Y-49466502D01*
X62260857Y-49482397D01*
X62784302Y-49669144D01*
X62857400Y-49665485D01*
X62643059Y-49803410D01*
X62498069Y-50015610D01*
X62447060Y-50267500D01*
X62447060Y-51967500D01*
X62491338Y-52202817D01*
X62630410Y-52418941D01*
X62842610Y-52563931D01*
X63094500Y-52614940D01*
X64794500Y-52614940D01*
X65029817Y-52570662D01*
X65245941Y-52431590D01*
X65390931Y-52219390D01*
X65441940Y-51967500D01*
X65441940Y-51941000D01*
X68008500Y-51941000D01*
X68086910Y-51925403D01*
X68384167Y-51925662D01*
X68727943Y-51783617D01*
X68836000Y-51675748D01*
X68836000Y-52009198D01*
X68773198Y-52072000D01*
X68072000Y-52072000D01*
X67829414Y-52120254D01*
X67781160Y-52129852D01*
X67534599Y-52294599D01*
X66233198Y-53596000D01*
X64008000Y-53596000D01*
X63717161Y-53653852D01*
X63703720Y-53662833D01*
X63470599Y-53818599D01*
X63185198Y-54104000D01*
X61782802Y-54104000D01*
X61497401Y-53818599D01*
X61250839Y-53653852D01*
X60960000Y-53596000D01*
X58819547Y-53596000D01*
X58705117Y-53319057D01*
X58442327Y-53055808D01*
X58098799Y-52913162D01*
X57726833Y-52912838D01*
X57383057Y-53054883D01*
X57119808Y-53317673D01*
X56977162Y-53661201D01*
X56976838Y-54033167D01*
X57118883Y-54376943D01*
X57381673Y-54640192D01*
X57725201Y-54782838D01*
X57772077Y-54782879D01*
X57882599Y-54893401D01*
X58129161Y-55058148D01*
X58420000Y-55116000D01*
X60645198Y-55116000D01*
X60930599Y-55401401D01*
X61177161Y-55566148D01*
X61468000Y-55624000D01*
X63500000Y-55624000D01*
X63790839Y-55566148D01*
X64037401Y-55401401D01*
X64322802Y-55116000D01*
X66548000Y-55116000D01*
X66838839Y-55058148D01*
X67085401Y-54893401D01*
X68386802Y-53592000D01*
X69088000Y-53592000D01*
X69378839Y-53534148D01*
X69625401Y-53369401D01*
X70133401Y-52861401D01*
X70210436Y-52746110D01*
X70298148Y-52614839D01*
X70356000Y-52324000D01*
X70356000Y-50988500D01*
X70421500Y-50988500D01*
X70712339Y-50930648D01*
X70958901Y-50765901D01*
X71326638Y-50398164D01*
X71344711Y-50489024D01*
X71887954Y-51302046D01*
X72461753Y-51685445D01*
X71090599Y-53056599D01*
X70925852Y-53303161D01*
X70868000Y-53594000D01*
X70868000Y-60723390D01*
X70807833Y-60723338D01*
X70464057Y-60865383D01*
X70430882Y-60898500D01*
X69415929Y-60898500D01*
X69147799Y-60787162D01*
X68775833Y-60786838D01*
X68432057Y-60928883D01*
X68324000Y-61036752D01*
X68324000Y-59998463D01*
X68356192Y-59966327D01*
X68498838Y-59622799D01*
X68499162Y-59250833D01*
X68357117Y-58907057D01*
X68094327Y-58643808D01*
X67750799Y-58501162D01*
X67378833Y-58500838D01*
X67035057Y-58642883D01*
X66771808Y-58905673D01*
X66629162Y-59249201D01*
X66628838Y-59621167D01*
X66770883Y-59964943D01*
X66804000Y-59998118D01*
X66804000Y-60787112D01*
X66489833Y-60786838D01*
X66146057Y-60928883D01*
X66112882Y-60962000D01*
X63309500Y-60962000D01*
X63018661Y-61019852D01*
X62772099Y-61184599D01*
X62725320Y-61231378D01*
X62679833Y-61231338D01*
X62336057Y-61373383D01*
X62072808Y-61636173D01*
X61930162Y-61979701D01*
X61929838Y-62351667D01*
X62071883Y-62695443D01*
X62334673Y-62958692D01*
X62678201Y-63101338D01*
X63050167Y-63101662D01*
X63393943Y-62959617D01*
X63657192Y-62696827D01*
X63746396Y-62482000D01*
X65989556Y-62482000D01*
X65946308Y-62525173D01*
X65803662Y-62868701D01*
X65803510Y-63042688D01*
X64503320Y-64342878D01*
X64457833Y-64342838D01*
X64114057Y-64484883D01*
X63850808Y-64747673D01*
X63708162Y-65091201D01*
X63707838Y-65463167D01*
X63849883Y-65806943D01*
X64112673Y-66070192D01*
X64456201Y-66212838D01*
X64828167Y-66213162D01*
X65171943Y-66071117D01*
X65435192Y-65808327D01*
X65577838Y-65464799D01*
X65577879Y-65417923D01*
X66804000Y-64191802D01*
X66804000Y-67503198D01*
X59660599Y-74646599D01*
X59495852Y-74893161D01*
X59438000Y-75184000D01*
X59438000Y-79441198D01*
X56857869Y-82021329D01*
X56721397Y-81691857D01*
X56479213Y-81622392D01*
X55678605Y-82423000D01*
X55692748Y-82437143D01*
X55513143Y-82616748D01*
X55499000Y-82602605D01*
X54698392Y-83403213D01*
X54767857Y-83645397D01*
X54908318Y-83695509D01*
X54708697Y-83777990D01*
X54315371Y-84170630D01*
X54102243Y-84683900D01*
X54101758Y-85239661D01*
X54313990Y-85753303D01*
X54706630Y-86146629D01*
X54914512Y-86232949D01*
X54708697Y-86317990D01*
X54315371Y-86710630D01*
X54102243Y-87223900D01*
X54101758Y-87779661D01*
X54313990Y-88293303D01*
X54706630Y-88686629D01*
X54914512Y-88772949D01*
X54708697Y-88857990D01*
X54315371Y-89250630D01*
X54102243Y-89763900D01*
X54101758Y-90319661D01*
X54313990Y-90833303D01*
X54706630Y-91226629D01*
X54914512Y-91312949D01*
X54708697Y-91397990D01*
X54315371Y-91790630D01*
X54102243Y-92303900D01*
X54101758Y-92859661D01*
X54313990Y-93373303D01*
X54706630Y-93766629D01*
X54914512Y-93852949D01*
X54708697Y-93937990D01*
X54315371Y-94330630D01*
X54102243Y-94843900D01*
X54101758Y-95399661D01*
X54313990Y-95913303D01*
X54706630Y-96306629D01*
X54914512Y-96392949D01*
X54708697Y-96477990D01*
X54315371Y-96870630D01*
X54102243Y-97383900D01*
X54101758Y-97939661D01*
X54115143Y-97972055D01*
X54050000Y-98037198D01*
X54050000Y-82215302D01*
X54089856Y-82215302D01*
X54117638Y-82770368D01*
X54276603Y-83154143D01*
X54518787Y-83223608D01*
X55319395Y-82423000D01*
X54518787Y-81622392D01*
X54276603Y-81691857D01*
X54089856Y-82215302D01*
X54050000Y-82215302D01*
X54050000Y-57299661D01*
X54101758Y-57299661D01*
X54313990Y-57813303D01*
X54706630Y-58206629D01*
X54914512Y-58292949D01*
X54708697Y-58377990D01*
X54315371Y-58770630D01*
X54102243Y-59283900D01*
X54101758Y-59839661D01*
X54313990Y-60353303D01*
X54706630Y-60746629D01*
X54914512Y-60832949D01*
X54708697Y-60917990D01*
X54315371Y-61310630D01*
X54102243Y-61823900D01*
X54101758Y-62379661D01*
X54313990Y-62893303D01*
X54706630Y-63286629D01*
X54914512Y-63372949D01*
X54708697Y-63457990D01*
X54315371Y-63850630D01*
X54102243Y-64363900D01*
X54101758Y-64919661D01*
X54313990Y-65433303D01*
X54706630Y-65826629D01*
X54914512Y-65912949D01*
X54708697Y-65997990D01*
X54315371Y-66390630D01*
X54102243Y-66903900D01*
X54101758Y-67459661D01*
X54313990Y-67973303D01*
X54706630Y-68366629D01*
X54914512Y-68452949D01*
X54708697Y-68537990D01*
X54315371Y-68930630D01*
X54102243Y-69443900D01*
X54101758Y-69999661D01*
X54313990Y-70513303D01*
X54706630Y-70906629D01*
X54914512Y-70992949D01*
X54708697Y-71077990D01*
X54315371Y-71470630D01*
X54102243Y-71983900D01*
X54101758Y-72539661D01*
X54313990Y-73053303D01*
X54706630Y-73446629D01*
X54914512Y-73532949D01*
X54708697Y-73617990D01*
X54315371Y-74010630D01*
X54102243Y-74523900D01*
X54101758Y-75079661D01*
X54313990Y-75593303D01*
X54706630Y-75986629D01*
X54914512Y-76072949D01*
X54708697Y-76157990D01*
X54315371Y-76550630D01*
X54102243Y-77063900D01*
X54101758Y-77619661D01*
X54313990Y-78133303D01*
X54706630Y-78526629D01*
X54914512Y-78612949D01*
X54708697Y-78697990D01*
X54315371Y-79090630D01*
X54102243Y-79603900D01*
X54101758Y-80159661D01*
X54313990Y-80673303D01*
X54706630Y-81066629D01*
X54898727Y-81146395D01*
X54767857Y-81200603D01*
X54698392Y-81442787D01*
X55499000Y-82243395D01*
X56299608Y-81442787D01*
X56230143Y-81200603D01*
X56089682Y-81150491D01*
X56289303Y-81068010D01*
X56682629Y-80675370D01*
X56895757Y-80162100D01*
X56896242Y-79606339D01*
X56684010Y-79092697D01*
X56291370Y-78699371D01*
X56083488Y-78613051D01*
X56289303Y-78528010D01*
X56682629Y-78135370D01*
X56895757Y-77622100D01*
X56896242Y-77066339D01*
X56684010Y-76552697D01*
X56291370Y-76159371D01*
X56083488Y-76073051D01*
X56289303Y-75988010D01*
X56682629Y-75595370D01*
X56895757Y-75082100D01*
X56896242Y-74526339D01*
X56684010Y-74012697D01*
X56291370Y-73619371D01*
X56083488Y-73533051D01*
X56289303Y-73448010D01*
X56682629Y-73055370D01*
X56895757Y-72542100D01*
X56896242Y-71986339D01*
X56684010Y-71472697D01*
X56291370Y-71079371D01*
X56083488Y-70993051D01*
X56289303Y-70908010D01*
X56682629Y-70515370D01*
X56895757Y-70002100D01*
X56896242Y-69446339D01*
X56684010Y-68932697D01*
X56291370Y-68539371D01*
X56083488Y-68453051D01*
X56289303Y-68368010D01*
X56682629Y-67975370D01*
X56895757Y-67462100D01*
X56896242Y-66906339D01*
X56684010Y-66392697D01*
X56291370Y-65999371D01*
X56083488Y-65913051D01*
X56289303Y-65828010D01*
X56682629Y-65435370D01*
X56895757Y-64922100D01*
X56896242Y-64366339D01*
X56684010Y-63852697D01*
X56291370Y-63459371D01*
X56083488Y-63373051D01*
X56289303Y-63288010D01*
X56682629Y-62895370D01*
X56895757Y-62382100D01*
X56896242Y-61826339D01*
X56684010Y-61312697D01*
X56291370Y-60919371D01*
X56083488Y-60833051D01*
X56289303Y-60748010D01*
X56682629Y-60355370D01*
X56895757Y-59842100D01*
X56896242Y-59286339D01*
X56684010Y-58772697D01*
X56291370Y-58379371D01*
X56083488Y-58293051D01*
X56289303Y-58208010D01*
X56682629Y-57815370D01*
X56895757Y-57302100D01*
X56896242Y-56746339D01*
X56684010Y-56232697D01*
X56291370Y-55839371D01*
X55778100Y-55626243D01*
X55222339Y-55625758D01*
X54708697Y-55837990D01*
X54315371Y-56230630D01*
X54102243Y-56743900D01*
X54101758Y-57299661D01*
X54050000Y-57299661D01*
X54050000Y-55137149D01*
X54057910Y-55149441D01*
X54270110Y-55294431D01*
X54522000Y-55345440D01*
X56222000Y-55345440D01*
X56457317Y-55301162D01*
X56673441Y-55162090D01*
X56818431Y-54949890D01*
X56869440Y-54698000D01*
X56869440Y-52998000D01*
X56825162Y-52762683D01*
X56686090Y-52546559D01*
X56473890Y-52401569D01*
X56222000Y-52350560D01*
X54522000Y-52350560D01*
X54286683Y-52394838D01*
X54070559Y-52533910D01*
X54050000Y-52563999D01*
X54050000Y-49625250D01*
X55511700Y-49625250D01*
X55511700Y-51561310D01*
X55608373Y-51794699D01*
X55787002Y-51973327D01*
X56020391Y-52070000D01*
X56495950Y-52070000D01*
X56654700Y-51911250D01*
X56654700Y-49466500D01*
X56908700Y-49466500D01*
X56908700Y-51911250D01*
X57067450Y-52070000D01*
X57543009Y-52070000D01*
X57776398Y-51973327D01*
X57955027Y-51794699D01*
X58051700Y-51561310D01*
X58051700Y-49625250D01*
X59804300Y-49625250D01*
X59804300Y-51561310D01*
X59900973Y-51794699D01*
X60079602Y-51973327D01*
X60312991Y-52070000D01*
X60788550Y-52070000D01*
X60947300Y-51911250D01*
X60947300Y-49466500D01*
X59963050Y-49466500D01*
X59804300Y-49625250D01*
X58051700Y-49625250D01*
X57892950Y-49466500D01*
X56908700Y-49466500D01*
X56654700Y-49466500D01*
X55670450Y-49466500D01*
X55511700Y-49625250D01*
X54050000Y-49625250D01*
X54050000Y-47700000D01*
X55511700Y-47700000D01*
X55511700Y-49053750D01*
G36*
X71630000Y-75244802D02*
X71630000Y-79762698D01*
X71466901Y-79599599D01*
X71220339Y-79434852D01*
X70929500Y-79377000D01*
X70104000Y-79377000D01*
X69813161Y-79434852D01*
X69594000Y-79581290D01*
X69594000Y-73914000D01*
X69543078Y-73658000D01*
X70043198Y-73658000D01*
X71630000Y-75244802D01*
X71630000Y-75244802D01*
G37*
X71630000Y-75244802D02*
X71630000Y-79762698D01*
X71466901Y-79599599D01*
X71220339Y-79434852D01*
X70929500Y-79377000D01*
X70104000Y-79377000D01*
X69813161Y-79434852D01*
X69594000Y-79581290D01*
X69594000Y-73914000D01*
X69543078Y-73658000D01*
X70043198Y-73658000D01*
X71630000Y-75244802D01*
G36*
X63185748Y-48245858D02*
X63171605Y-48260000D01*
X63972213Y-49060608D01*
X64214397Y-48991143D01*
X64264509Y-48850682D01*
X64346990Y-49050303D01*
X64739630Y-49443629D01*
X65252900Y-49656757D01*
X65808661Y-49657242D01*
X66322303Y-49445010D01*
X66715629Y-49052370D01*
X66801949Y-48844488D01*
X66886990Y-49050303D01*
X67279630Y-49443629D01*
X67408001Y-49496933D01*
X67534599Y-49686401D01*
X67935785Y-50087587D01*
X67670057Y-50197383D01*
X67446049Y-50421000D01*
X65441940Y-50421000D01*
X65441940Y-50267500D01*
X65397662Y-50032183D01*
X65258590Y-49816059D01*
X65046390Y-49671069D01*
X64794500Y-49620060D01*
X63390796Y-49620060D01*
X63723143Y-49482397D01*
X63792608Y-49240213D01*
X62992000Y-48439605D01*
X62219107Y-49212498D01*
X62185552Y-49212498D01*
X62344300Y-49053750D01*
X62344300Y-48728095D01*
X62812395Y-48260000D01*
X62798253Y-48245858D01*
X62977858Y-48066253D01*
X62992000Y-48080395D01*
X63006143Y-48066253D01*
X63185748Y-48245858D01*
X63185748Y-48245858D01*
G37*
X63185748Y-48245858D02*
X63171605Y-48260000D01*
X63972213Y-49060608D01*
X64214397Y-48991143D01*
X64264509Y-48850682D01*
X64346990Y-49050303D01*
X64739630Y-49443629D01*
X65252900Y-49656757D01*
X65808661Y-49657242D01*
X66322303Y-49445010D01*
X66715629Y-49052370D01*
X66801949Y-48844488D01*
X66886990Y-49050303D01*
X67279630Y-49443629D01*
X67408001Y-49496933D01*
X67534599Y-49686401D01*
X67935785Y-50087587D01*
X67670057Y-50197383D01*
X67446049Y-50421000D01*
X65441940Y-50421000D01*
X65441940Y-50267500D01*
X65397662Y-50032183D01*
X65258590Y-49816059D01*
X65046390Y-49671069D01*
X64794500Y-49620060D01*
X63390796Y-49620060D01*
X63723143Y-49482397D01*
X63792608Y-49240213D01*
X62992000Y-48439605D01*
X62219107Y-49212498D01*
X62185552Y-49212498D01*
X62344300Y-49053750D01*
X62344300Y-48728095D01*
X62812395Y-48260000D01*
X62798253Y-48245858D01*
X62977858Y-48066253D01*
X62992000Y-48080395D01*
X63006143Y-48066253D01*
X63185748Y-48245858D01*
M02*
