M48
;DRILL file {KiCad 4.0.4-stable} date 06/30/17 00:29:07
;FORMAT={3:3/ absolute / metric / suppress leading zeros}
FMAT,2
METRIC,TZ
T1C0.400
T2C0.762
T3C0.900
T4C1.000
T5C1.540
%
G90
G05
M71
T1
X55245Y-108204
X57912Y-53848
X58547Y-102362
X59880Y-114935
X60198Y-100457
X60897Y-80772
X60960Y-117094
X61087Y-115189
X61722Y-53848
X62293Y-95504
X62865Y-62167
X63627Y-108776
X64262Y-107188
X64643Y-65278
X64643Y-123126
X64961Y-109093
X65024Y-72644
X65659Y-123381
X65849Y-116967
X66675Y-61722
X66739Y-63055
X66866Y-78613
X67247Y-106934
X67247Y-118237
X67310Y-116840
X67564Y-59436
X68072Y-71120
X68199Y-50990
X68263Y-104140
X68897Y-63246
X68961Y-61722
X69152Y-101092
X69596Y-78613
X69659Y-80582
X70358Y-68072
X70993Y-61658
X70993Y-63182
X71374Y-72644
X71374Y-115126
X71501Y-78804
X71628Y-69406
X71628Y-116776
X72200Y-114363
X72390Y-86106
X72453Y-87376
X73152Y-79248
X73660Y-57150
X73660Y-122047
X74295Y-81661
X74295Y-85789
X74486Y-59436
X74486Y-82487
X74994Y-53721
X74994Y-67183
X74994Y-125413
X75184Y-61658
X75184Y-80455
X75438Y-72390
X75756Y-84265
X75882Y-83185
X76454Y-49276
X76454Y-52324
X76454Y-89218
X76644Y-66421
X76644Y-80582
X76708Y-110490
X77089Y-90742
X77343Y-81090
X79185Y-83757
T2
X55499Y-57023
X55499Y-59563
X55499Y-62103
X55499Y-64643
X55499Y-67183
X55499Y-69723
X55499Y-72263
X55499Y-74803
X55499Y-77343
X55499Y-79883
X55499Y-82423
X55499Y-84963
X55499Y-87503
X55499Y-90043
X55499Y-92583
X55499Y-95123
X55499Y-97663
X55499Y-100203
X55499Y-102743
X55499Y-105283
X62992Y-48260
X65532Y-48260
X68072Y-48260
X70612Y-48260
X78359Y-57023
X78359Y-59563
X78359Y-62103
X78359Y-64643
X78359Y-67183
X78359Y-69723
X78359Y-72263
X78359Y-74803
X78359Y-77343
X78359Y-79883
X78359Y-82423
X78359Y-84963
X78359Y-87503
X78359Y-90043
X78359Y-92583
X78359Y-95123
X78359Y-97663
X78359Y-100203
X78359Y-102743
X78359Y-105283
T3
X68834Y-82042
X68834Y-84542
T4
X55372Y-53848
X63944Y-51118
X77914Y-109347
X77914Y-111887
X77914Y-114427
X77914Y-116967
X77914Y-119507
X77914Y-122047
X77914Y-124587
X77914Y-127127
X77914Y-129667
T5
X59365Y-111290
X59665Y-134190
X62765Y-111290
X70365Y-111290
X73865Y-111290
X73865Y-134190
T0
M30
