G04 #@! TF.FileFunction,Copper,L2,Bot,Signal*
%FSLAX46Y46*%
G04 Gerber Fmt 4.6, Leading zero omitted, Abs format (unit mm)*
G04 Created by KiCad (PCBNEW 4.0.4-stable) date 06/30/17 00:29:43*
%MOMM*%
%LPD*%
G01*
G04 APERTURE LIST*
%ADD10C,0.100000*%
%ADD11R,1.270000X4.191000*%
%ADD12R,1.270000X3.683000*%
%ADD13R,2.000000X1.600000*%
%ADD14C,1.524000*%
%ADD15R,1.850000X1.850000*%
%ADD16C,1.850000*%
%ADD17R,2.000000X1.700000*%
%ADD18R,1.500000X0.700000*%
%ADD19R,0.800000X1.000000*%
%ADD20R,2.800000X2.800000*%
%ADD21R,1.200000X3.000000*%
%ADD22R,1.524000X3.000000*%
%ADD23R,1.700000X1.700000*%
%ADD24O,1.700000X1.700000*%
%ADD25C,0.600000*%
%ADD26C,0.250000*%
%ADD27C,0.500000*%
G04 APERTURE END LIST*
D10*
D11*
X56781700Y-49339500D03*
X61074300Y-49339500D03*
D12*
X58928000Y-49085500D03*
D13*
X60230000Y-90170000D03*
X64230000Y-90170000D03*
X60230000Y-95250000D03*
X64230000Y-95250000D03*
X60230000Y-92710000D03*
X64230000Y-92710000D03*
D14*
X62992000Y-48260000D03*
X65532000Y-48260000D03*
X68072000Y-48260000D03*
X70612000Y-48260000D03*
D15*
X68834000Y-82042000D03*
D16*
X68834000Y-84542000D03*
D17*
X64230000Y-100330000D03*
X60230000Y-100330000D03*
X60230000Y-97790000D03*
X64230000Y-97790000D03*
X71215000Y-106680000D03*
X67215000Y-106680000D03*
X64230000Y-104140000D03*
X60230000Y-104140000D03*
X72485000Y-104140000D03*
X68485000Y-104140000D03*
D18*
X76548000Y-49058000D03*
X76548000Y-52058000D03*
X76548000Y-53558000D03*
D19*
X79408000Y-47658000D03*
X79408000Y-54958000D03*
X77198000Y-54958000D03*
X77198000Y-47658000D03*
D14*
X55499000Y-57023000D03*
X55499000Y-59563000D03*
X55499000Y-62103000D03*
X55499000Y-64643000D03*
X55499000Y-67183000D03*
X55499000Y-69723000D03*
X55499000Y-72263000D03*
X55499000Y-74803000D03*
X55499000Y-77343000D03*
X55499000Y-79883000D03*
X55499000Y-82423000D03*
X55499000Y-84963000D03*
X55499000Y-87503000D03*
X55499000Y-90043000D03*
X55499000Y-92583000D03*
X55499000Y-95123000D03*
X55499000Y-97663000D03*
X55499000Y-100203000D03*
X55499000Y-102743000D03*
X55499000Y-105283000D03*
X78359000Y-57023000D03*
X78359000Y-59563000D03*
X78359000Y-62103000D03*
X78359000Y-64643000D03*
X78359000Y-67183000D03*
X78359000Y-69723000D03*
X78359000Y-72263000D03*
X78359000Y-74803000D03*
X78359000Y-77343000D03*
X78359000Y-79883000D03*
X78359000Y-82423000D03*
X78359000Y-84963000D03*
X78359000Y-87503000D03*
X78359000Y-90043000D03*
X78359000Y-92583000D03*
X78359000Y-95123000D03*
X78359000Y-97663000D03*
X78359000Y-100203000D03*
X78359000Y-102743000D03*
X78359000Y-105283000D03*
D20*
X62765000Y-111290000D03*
X70365000Y-111290000D03*
X59365000Y-111290000D03*
X73865000Y-111290000D03*
X59665000Y-134190000D03*
X73865000Y-134190000D03*
D21*
X73660000Y-76330000D03*
X71660000Y-76330000D03*
X69660000Y-76330000D03*
X67660000Y-76330000D03*
X65660000Y-76330000D03*
X63660000Y-76330000D03*
X61660000Y-76330000D03*
X59660000Y-76330000D03*
X59660000Y-56630000D03*
X61660000Y-56630000D03*
X63660000Y-56630000D03*
X65660000Y-56630000D03*
X67660000Y-56630000D03*
X69660000Y-56630000D03*
X71660000Y-56630000D03*
X73660000Y-56630000D03*
D22*
X70688200Y-91465400D03*
X70688200Y-100711000D03*
D23*
X77914500Y-129667000D03*
D24*
X77914500Y-127127000D03*
X77914500Y-124587000D03*
X77914500Y-122047000D03*
X77914500Y-119507000D03*
X77914500Y-116967000D03*
X77914500Y-114427000D03*
X77914500Y-111887000D03*
X77914500Y-109347000D03*
D23*
X63944500Y-51117500D03*
X55372000Y-53848000D03*
D25*
X71501000Y-78803500D03*
X69596000Y-78613000D03*
X66865500Y-78613000D03*
X60896500Y-80772000D03*
X62293500Y-95504000D03*
X65849500Y-116967000D03*
X67310000Y-116840000D03*
X61722000Y-53848000D03*
X72199500Y-114363500D03*
X67564000Y-59436000D03*
X57912000Y-53848000D03*
X68199000Y-50990500D03*
X76454000Y-49276000D03*
X60198000Y-100457000D03*
X65659000Y-123380500D03*
X71628000Y-116776500D03*
X69151500Y-101092000D03*
X64262000Y-107188000D03*
X63627000Y-108775500D03*
X55245000Y-108204000D03*
X67246500Y-106934000D03*
X58547000Y-102362000D03*
X71374000Y-115125500D03*
X67246500Y-118237000D03*
X60960000Y-117094000D03*
X61087000Y-115189000D03*
X64960500Y-109093000D03*
X68262500Y-104140000D03*
X76454000Y-52324000D03*
X76644500Y-66421000D03*
X74993500Y-67183000D03*
X71628000Y-69405500D03*
X71374000Y-72644000D03*
X75184000Y-61658500D03*
X70993000Y-63182500D03*
X68897500Y-63246000D03*
X66738500Y-63055500D03*
X64643000Y-65278000D03*
X74993500Y-53721000D03*
X74485500Y-59436000D03*
X70993000Y-61658500D03*
X68961000Y-61722000D03*
X66675000Y-61722000D03*
X62865000Y-62166500D03*
X77343000Y-81089500D03*
X75882500Y-83185000D03*
X74485500Y-82486500D03*
X74295000Y-85788500D03*
X79184500Y-83756500D03*
X72453500Y-87376000D03*
X69659500Y-80581500D03*
X70358000Y-68072000D03*
X68072000Y-71120000D03*
X73660000Y-57150000D03*
X73152000Y-79248000D03*
X72390000Y-86106000D03*
X65024000Y-72644000D03*
X75438000Y-72390000D03*
X76644500Y-80581500D03*
X75184000Y-80454500D03*
X74295000Y-81661000D03*
X75755500Y-84264500D03*
X76454000Y-89217500D03*
X77089000Y-90741500D03*
X76708000Y-110490000D03*
X73660000Y-122047000D03*
X74993500Y-125412500D03*
X64643000Y-123126500D03*
X59880500Y-114935000D03*
D26*
X73660000Y-76330000D02*
X73660000Y-77279500D01*
X73660000Y-77279500D02*
X72961500Y-77978000D01*
X72961500Y-77978000D02*
X72707500Y-77978000D01*
X72707500Y-77978000D02*
X71818500Y-78867000D01*
X71818500Y-78867000D02*
X71564500Y-78867000D01*
X71564500Y-78867000D02*
X71501000Y-78803500D01*
X69596000Y-78613000D02*
X66865500Y-78613000D01*
X60896500Y-80772000D02*
X60833000Y-80835500D01*
X60833000Y-80835500D02*
X58674000Y-80835500D01*
X58674000Y-80835500D02*
X57753250Y-79914750D01*
X64230000Y-95250000D02*
X62547500Y-95250000D01*
X62547500Y-95250000D02*
X62293500Y-95504000D01*
X65849500Y-116967000D02*
X65976500Y-116840000D01*
X65976500Y-116840000D02*
X67310000Y-116840000D01*
X64230000Y-95250000D02*
X68834000Y-95250000D01*
X70688200Y-97104200D02*
X70688200Y-100711000D01*
X68834000Y-95250000D02*
X70688200Y-97104200D01*
X64230000Y-92710000D02*
X64230000Y-95250000D01*
X64230000Y-90170000D02*
X64230000Y-92710000D01*
X64230000Y-90170000D02*
X64230000Y-89376000D01*
X64230000Y-89376000D02*
X60769500Y-85915500D01*
X60769500Y-85915500D02*
X59753500Y-85915500D01*
X59753500Y-85915500D02*
X56261000Y-82423000D01*
X56261000Y-82423000D02*
X55499000Y-82423000D01*
X55499000Y-82423000D02*
X55499000Y-82169000D01*
X55499000Y-82169000D02*
X57753250Y-79914750D01*
X57753250Y-79914750D02*
X57785000Y-79883000D01*
X57785000Y-79883000D02*
X57785000Y-77343000D01*
X57785000Y-77343000D02*
X58798000Y-76330000D01*
X58798000Y-76330000D02*
X59660000Y-76330000D01*
X61660000Y-56630000D02*
X61660000Y-72452000D01*
X59660000Y-73944000D02*
X59660000Y-76330000D01*
X59944000Y-73660000D02*
X59660000Y-73944000D01*
X60452000Y-73660000D02*
X59944000Y-73660000D01*
X61660000Y-72452000D02*
X60452000Y-73660000D01*
X61660000Y-53910000D02*
X61660000Y-56630000D01*
X61722000Y-53848000D02*
X61660000Y-53910000D01*
D27*
X59660000Y-56630000D02*
X59660000Y-53564000D01*
X58928000Y-52832000D02*
X58928000Y-49085500D01*
X59660000Y-53564000D02*
X58928000Y-52832000D01*
D26*
X71215000Y-106680000D02*
X71215000Y-107029500D01*
X71215000Y-107029500D02*
X68897500Y-109347000D01*
X72072500Y-114236500D02*
X72199500Y-114363500D01*
X69850000Y-114236500D02*
X72072500Y-114236500D01*
X68395002Y-112781502D02*
X69850000Y-114236500D01*
X68395002Y-109531998D02*
X68395002Y-112781502D01*
X68580000Y-109347000D02*
X68395002Y-109531998D01*
X68897500Y-109347000D02*
X68580000Y-109347000D01*
X64230000Y-104140000D02*
X65468500Y-104140000D01*
X70548500Y-103441500D02*
X70739000Y-103251000D01*
X70548500Y-104965500D02*
X70548500Y-103441500D01*
X70104000Y-105410000D02*
X70548500Y-104965500D01*
X66738500Y-105410000D02*
X70104000Y-105410000D01*
X65468500Y-104140000D02*
X66738500Y-105410000D01*
X60230000Y-97790000D02*
X60833000Y-97790000D01*
X60833000Y-97790000D02*
X62928500Y-99885500D01*
X62928500Y-99885500D02*
X63785500Y-99885500D01*
X63785500Y-99885500D02*
X64230000Y-100330000D01*
X72485000Y-104140000D02*
X72485000Y-105410000D01*
X72485000Y-105410000D02*
X71215000Y-106680000D01*
X64230000Y-100330000D02*
X67246500Y-100330000D01*
X71596000Y-103251000D02*
X72485000Y-104140000D01*
X70231000Y-103251000D02*
X70739000Y-103251000D01*
X70739000Y-103251000D02*
X71596000Y-103251000D01*
X69278500Y-102298500D02*
X70231000Y-103251000D01*
X69215000Y-102298500D02*
X69278500Y-102298500D01*
X67246500Y-100330000D02*
X69215000Y-102298500D01*
X55499000Y-84963000D02*
X56388000Y-84963000D01*
X60230000Y-88678000D02*
X60230000Y-90170000D01*
X59118500Y-87566500D02*
X60230000Y-88678000D01*
X58991500Y-87566500D02*
X59118500Y-87566500D01*
X56388000Y-84963000D02*
X58991500Y-87566500D01*
X60230000Y-95250000D02*
X60230000Y-97790000D01*
X60230000Y-92710000D02*
X60230000Y-95250000D01*
X60230000Y-90170000D02*
X60230000Y-92710000D01*
X67564000Y-59436000D02*
X67660000Y-59340000D01*
X67660000Y-59340000D02*
X67660000Y-56630000D01*
X65532000Y-48260000D02*
X65532000Y-49530000D01*
X67660000Y-51658000D02*
X67660000Y-56630000D01*
X65532000Y-49530000D02*
X67660000Y-51658000D01*
X55372000Y-53848000D02*
X57912000Y-53848000D01*
X70612000Y-51498500D02*
X68707000Y-51498500D01*
X68707000Y-51498500D02*
X68199000Y-50990500D01*
X75438000Y-60134500D02*
X75438000Y-60325000D01*
X70612000Y-51625500D02*
X72453500Y-53467000D01*
X72453500Y-53467000D02*
X73088500Y-53467000D01*
X73088500Y-53467000D02*
X74231500Y-54610000D01*
X74231500Y-54610000D02*
X75057000Y-54610000D01*
X75057000Y-54610000D02*
X75438000Y-54991000D01*
X75438000Y-54991000D02*
X75438000Y-60134500D01*
X70612000Y-48260000D02*
X70612000Y-51498500D01*
X70612000Y-51498500D02*
X70612000Y-51625500D01*
X75946000Y-68453000D02*
X75152250Y-69246750D01*
X75946000Y-60833000D02*
X75946000Y-68453000D01*
X75438000Y-60325000D02*
X75946000Y-60833000D01*
X76517500Y-70358000D02*
X78359000Y-72199500D01*
X76263500Y-70358000D02*
X76517500Y-70358000D01*
X75120500Y-69215000D02*
X75152250Y-69246750D01*
X75152250Y-69246750D02*
X76263500Y-70358000D01*
X78359000Y-72199500D02*
X78359000Y-72263000D01*
X76454000Y-49276000D02*
X76548000Y-49182000D01*
X76548000Y-49182000D02*
X76548000Y-49058000D01*
X60230000Y-100330000D02*
X57912000Y-100330000D01*
X56832500Y-93916500D02*
X55499000Y-92583000D01*
X56832500Y-99250500D02*
X56832500Y-93916500D01*
X57912000Y-100330000D02*
X56832500Y-99250500D01*
X60198000Y-100457000D02*
X60230000Y-100425000D01*
X60230000Y-100425000D02*
X60230000Y-100330000D01*
X64230000Y-97790000D02*
X65849500Y-97790000D01*
X67754500Y-121285000D02*
X65659000Y-123380500D01*
X67754500Y-120650000D02*
X67754500Y-121285000D01*
X71628000Y-116776500D02*
X67754500Y-120650000D01*
X65849500Y-97790000D02*
X69151500Y-101092000D01*
X64770000Y-106680000D02*
X67215000Y-106680000D01*
X64262000Y-107188000D02*
X64770000Y-106680000D01*
X64262000Y-108775500D02*
X63627000Y-108775500D01*
X64325500Y-108712000D02*
X64262000Y-108775500D01*
X63182500Y-108712000D02*
X64325500Y-108712000D01*
X63055500Y-108585000D02*
X63182500Y-108712000D01*
X55626000Y-108585000D02*
X63055500Y-108585000D01*
X55245000Y-108204000D02*
X55626000Y-108585000D01*
X67246500Y-106934000D02*
X67215000Y-106902500D01*
X67215000Y-106902500D02*
X67215000Y-106680000D01*
X60230000Y-104140000D02*
X60230000Y-104045000D01*
X60230000Y-104045000D02*
X58547000Y-102362000D01*
X60230000Y-104140000D02*
X60230000Y-104235500D01*
X60230000Y-104235500D02*
X64135000Y-108140500D01*
X64135000Y-108140500D02*
X66040000Y-108140500D01*
X66040000Y-108140500D02*
X67945000Y-110045500D01*
X67945000Y-110045500D02*
X67945000Y-113982500D01*
X67945000Y-113982500D02*
X69088000Y-115125500D01*
X69088000Y-115125500D02*
X71374000Y-115125500D01*
X55499000Y-100203000D02*
X56007000Y-100203000D01*
X56007000Y-100203000D02*
X57150000Y-101346000D01*
X57150000Y-101346000D02*
X58420000Y-101346000D01*
X58420000Y-101346000D02*
X58928000Y-101854000D01*
X58928000Y-101854000D02*
X59436000Y-101854000D01*
X59436000Y-101854000D02*
X60134500Y-102552500D01*
X60134500Y-102552500D02*
X67437000Y-102552500D01*
X67437000Y-102552500D02*
X68485000Y-103600500D01*
X68485000Y-103600500D02*
X68485000Y-104140000D01*
X67246500Y-118237000D02*
X66929000Y-117919500D01*
X66929000Y-117919500D02*
X61785500Y-117919500D01*
X61785500Y-117919500D02*
X60960000Y-117094000D01*
X61087000Y-115189000D02*
X61150500Y-115125500D01*
X61150500Y-115125500D02*
X64706500Y-115125500D01*
X64706500Y-115125500D02*
X64960500Y-114871500D01*
X64960500Y-114871500D02*
X64960500Y-109093000D01*
X68262500Y-104140000D02*
X68485000Y-104140000D01*
X76454000Y-52324000D02*
X76548000Y-52230000D01*
X76548000Y-52230000D02*
X76548000Y-52058000D01*
X73865000Y-111290000D02*
X74193500Y-111290000D01*
X74193500Y-111290000D02*
X76136500Y-109347000D01*
X76136500Y-109347000D02*
X77914500Y-109347000D01*
X73865000Y-111290000D02*
X73865000Y-113714000D01*
X54483000Y-90043000D02*
X55499000Y-90043000D01*
X53848000Y-90678000D02*
X54483000Y-90043000D01*
X53848000Y-110172500D02*
X53848000Y-90678000D01*
X59753500Y-116078000D02*
X53848000Y-110172500D01*
X71501000Y-116078000D02*
X59753500Y-116078000D01*
X73865000Y-113714000D02*
X71501000Y-116078000D01*
X78359000Y-57023000D02*
X78359000Y-57086500D01*
X78359000Y-57086500D02*
X76644500Y-58801000D01*
X76644500Y-58801000D02*
X76644500Y-66421000D01*
X74993500Y-67183000D02*
X72834500Y-69342000D01*
X72834500Y-69342000D02*
X71691500Y-69342000D01*
X71691500Y-69342000D02*
X71628000Y-69405500D01*
X71374000Y-72644000D02*
X71660000Y-72930000D01*
X71660000Y-72930000D02*
X71660000Y-76330000D01*
X69660000Y-76330000D02*
X69660000Y-73978000D01*
X73914000Y-61658500D02*
X75184000Y-61658500D01*
X72390000Y-63182500D02*
X73914000Y-61658500D01*
X70993000Y-63182500D02*
X72390000Y-63182500D01*
X66929000Y-63246000D02*
X68897500Y-63246000D01*
X66738500Y-63055500D02*
X66929000Y-63246000D01*
X64643000Y-69215000D02*
X64643000Y-65278000D01*
X67310000Y-71882000D02*
X64643000Y-69215000D01*
X67437000Y-71882000D02*
X67310000Y-71882000D01*
X67500500Y-71818500D02*
X67437000Y-71882000D01*
X69660000Y-73978000D02*
X67500500Y-71818500D01*
X67660000Y-76330000D02*
X67660000Y-74772000D01*
X79629000Y-61277500D02*
X78803500Y-62103000D01*
X79629000Y-56388000D02*
X79629000Y-61277500D01*
X79057500Y-55816500D02*
X79629000Y-56388000D01*
X77533500Y-55816500D02*
X79057500Y-55816500D01*
X77279500Y-56070500D02*
X77533500Y-55816500D01*
X76136500Y-56070500D02*
X77279500Y-56070500D01*
X76136500Y-54864000D02*
X76136500Y-56070500D01*
X74993500Y-53721000D02*
X76136500Y-54864000D01*
X72453500Y-61468000D02*
X74485500Y-59436000D01*
X71183500Y-61468000D02*
X72453500Y-61468000D01*
X70993000Y-61658500D02*
X71183500Y-61468000D01*
X66675000Y-61722000D02*
X68961000Y-61722000D01*
X62801500Y-62230000D02*
X62865000Y-62166500D01*
X62801500Y-71945500D02*
X62801500Y-62230000D01*
X65024000Y-74168000D02*
X62801500Y-71945500D01*
X67056000Y-74168000D02*
X65024000Y-74168000D01*
X67660000Y-74772000D02*
X67056000Y-74168000D01*
X78803500Y-62103000D02*
X78359000Y-62103000D01*
X78359000Y-64643000D02*
X78359000Y-64897000D01*
X78359000Y-64897000D02*
X79756000Y-66294000D01*
X79756000Y-66294000D02*
X79756000Y-73215500D01*
X79756000Y-73215500D02*
X79629000Y-73342500D01*
X79629000Y-73342500D02*
X79629000Y-80708500D01*
X79629000Y-80708500D02*
X79248000Y-81089500D01*
X79248000Y-81089500D02*
X77343000Y-81089500D01*
X75882500Y-83185000D02*
X75120500Y-82423000D01*
X75120500Y-82423000D02*
X74549000Y-82423000D01*
X74549000Y-82423000D02*
X74485500Y-82486500D01*
X74295000Y-85788500D02*
X74104500Y-85598000D01*
X74104500Y-85598000D02*
X70739000Y-82232500D01*
X70739000Y-82232500D02*
X70739000Y-80518000D01*
X70739000Y-80518000D02*
X69913500Y-79692500D01*
X69913500Y-79692500D02*
X66040000Y-79692500D01*
X66040000Y-79692500D02*
X65660000Y-79312500D01*
X65660000Y-79312500D02*
X65660000Y-76330000D01*
X63660000Y-76330000D02*
X63660000Y-78519000D01*
X79565500Y-84137500D02*
X79184500Y-83756500D01*
X79565500Y-88519000D02*
X79565500Y-84137500D01*
X79311500Y-88773000D02*
X79565500Y-88519000D01*
X77660500Y-88773000D02*
X79311500Y-88773000D01*
X76898500Y-88011000D02*
X77660500Y-88773000D01*
X73088500Y-88011000D02*
X76898500Y-88011000D01*
X72453500Y-87376000D02*
X73088500Y-88011000D01*
X69342000Y-80264000D02*
X69659500Y-80581500D01*
X65405000Y-80264000D02*
X69342000Y-80264000D01*
X63660000Y-78519000D02*
X65405000Y-80264000D01*
X69660000Y-56630000D02*
X69660000Y-69660000D01*
X76454000Y-79756000D02*
X78232000Y-79756000D01*
X75184000Y-78486000D02*
X76454000Y-79756000D01*
X75184000Y-73660000D02*
X75184000Y-78486000D01*
X76454000Y-72390000D02*
X75184000Y-73660000D01*
X76454000Y-71628000D02*
X76454000Y-72390000D01*
X75438000Y-70612000D02*
X76454000Y-71628000D01*
X70612000Y-70612000D02*
X75438000Y-70612000D01*
X69660000Y-69660000D02*
X70612000Y-70612000D01*
X78232000Y-79756000D02*
X78359000Y-79883000D01*
X70612000Y-78486000D02*
X70612000Y-79311500D01*
X71660000Y-56630000D02*
X70866000Y-57424000D01*
X70866000Y-59182000D02*
X70866000Y-57424000D01*
X70358000Y-59690000D02*
X70866000Y-59182000D01*
X70358000Y-68072000D02*
X70358000Y-59690000D01*
X68072000Y-71628000D02*
X68072000Y-71120000D01*
X70104000Y-73660000D02*
X68072000Y-71628000D01*
X70612000Y-74168000D02*
X70104000Y-73660000D01*
X70612000Y-78486000D02*
X70612000Y-74168000D01*
X77025500Y-82867500D02*
X77914500Y-82867500D01*
X75565000Y-81407000D02*
X77025500Y-82867500D01*
X74993500Y-81407000D02*
X75565000Y-81407000D01*
X74041000Y-80454500D02*
X74993500Y-81407000D01*
X74041000Y-79248000D02*
X74041000Y-80454500D01*
X73406000Y-78613000D02*
X74041000Y-79248000D01*
X72771000Y-78613000D02*
X73406000Y-78613000D01*
X72390000Y-78994000D02*
X72771000Y-78613000D01*
X72390000Y-79057500D02*
X72390000Y-78994000D01*
X71374000Y-80073500D02*
X72390000Y-79057500D01*
X70612000Y-79311500D02*
X71374000Y-80073500D01*
X77914500Y-82867500D02*
X78359000Y-82423000D01*
X78359000Y-82423000D02*
X77597000Y-82423000D01*
X78359000Y-84963000D02*
X74549000Y-84963000D01*
X73660000Y-57150000D02*
X73660000Y-56630000D01*
X73152000Y-83566000D02*
X73152000Y-79248000D01*
X74549000Y-84963000D02*
X73152000Y-83566000D01*
X63660000Y-56630000D02*
X63660000Y-71280000D01*
X73406000Y-87122000D02*
X77978000Y-87122000D01*
X72390000Y-86106000D02*
X73406000Y-87122000D01*
X63660000Y-71280000D02*
X65024000Y-72644000D01*
X77978000Y-87122000D02*
X78359000Y-87503000D01*
X65660000Y-56630000D02*
X65660000Y-64390000D01*
X74676000Y-71628000D02*
X75438000Y-72390000D01*
X69850000Y-71628000D02*
X74676000Y-71628000D01*
X66040000Y-67818000D02*
X69850000Y-71628000D01*
X66040000Y-64770000D02*
X66040000Y-67818000D01*
X65660000Y-64390000D02*
X66040000Y-64770000D01*
X78359000Y-92583000D02*
X77978000Y-92583000D01*
X77978000Y-92583000D02*
X73914000Y-88519000D01*
X73914000Y-88519000D02*
X72390000Y-88519000D01*
X72390000Y-88519000D02*
X70548500Y-86677500D01*
X70548500Y-86677500D02*
X67881500Y-86677500D01*
X67881500Y-86677500D02*
X63563500Y-82359500D01*
X63563500Y-82359500D02*
X63563500Y-80391000D01*
X63563500Y-80391000D02*
X61660000Y-78487500D01*
X61660000Y-78487500D02*
X61660000Y-76330000D01*
X70688200Y-91465400D02*
X70688200Y-93167200D01*
X72644000Y-95123000D02*
X78359000Y-95123000D01*
X70688200Y-93167200D02*
X72644000Y-95123000D01*
X76644500Y-80581500D02*
X76517500Y-80454500D01*
X76517500Y-80454500D02*
X75184000Y-80454500D01*
X74295000Y-81661000D02*
X73660000Y-82296000D01*
X73660000Y-82296000D02*
X73660000Y-82994500D01*
X73660000Y-82994500D02*
X74803000Y-84137500D01*
X74803000Y-84137500D02*
X75628500Y-84137500D01*
X75628500Y-84137500D02*
X75755500Y-84264500D01*
X76454000Y-89217500D02*
X77089000Y-89852500D01*
X77089000Y-89852500D02*
X77089000Y-90741500D01*
X77914500Y-129667000D02*
X76835000Y-129667000D01*
X76517500Y-110680500D02*
X76708000Y-110490000D01*
X76517500Y-113347500D02*
X76517500Y-110680500D01*
X76073000Y-113792000D02*
X76517500Y-113347500D01*
X75755500Y-113792000D02*
X76073000Y-113792000D01*
X74866500Y-114681000D02*
X75755500Y-113792000D01*
X74866500Y-120840500D02*
X74866500Y-114681000D01*
X73660000Y-122047000D02*
X74866500Y-120840500D01*
X74993500Y-127825500D02*
X74993500Y-125412500D01*
X76835000Y-129667000D02*
X74993500Y-127825500D01*
X55499000Y-105283000D02*
X55499000Y-106362500D01*
X73215500Y-124587000D02*
X77914500Y-124587000D01*
X70612000Y-127190500D02*
X73215500Y-124587000D01*
X68834000Y-127190500D02*
X70612000Y-127190500D01*
X66738500Y-125095000D02*
X68834000Y-127190500D01*
X65087500Y-125095000D02*
X66738500Y-125095000D01*
X64643000Y-124650500D02*
X65087500Y-125095000D01*
X64643000Y-123126500D02*
X64643000Y-124650500D01*
X59372500Y-114935000D02*
X59880500Y-114935000D01*
X56324500Y-111887000D02*
X59372500Y-114935000D01*
X56324500Y-111633000D02*
X56324500Y-111887000D01*
X54419500Y-109728000D02*
X56324500Y-111633000D01*
X54419500Y-107442000D02*
X54419500Y-109728000D01*
X55499000Y-106362500D02*
X54419500Y-107442000D01*
M02*
