G04 #@! TF.FileFunction,Soldermask,Top*
%FSLAX46Y46*%
G04 Gerber Fmt 4.6, Leading zero omitted, Abs format (unit mm)*
G04 Created by KiCad (PCBNEW 4.0.4-stable) date 06/30/17 00:29:43*
%MOMM*%
%LPD*%
G01*
G04 APERTURE LIST*
%ADD10C,0.100000*%
%ADD11C,1.924000*%
%ADD12R,2.250000X2.250000*%
%ADD13C,2.250000*%
%ADD14C,1.300000*%
%ADD15C,1.160000*%
%ADD16C,1.500000*%
%ADD17R,3.200000X3.200000*%
%ADD18R,2.100000X2.100000*%
%ADD19O,2.100000X2.100000*%
G04 APERTURE END LIST*
D10*
D11*
X62992000Y-48260000D03*
X65532000Y-48260000D03*
X68072000Y-48260000D03*
X70612000Y-48260000D03*
D12*
X68834000Y-82042000D03*
D13*
X68834000Y-84542000D03*
D14*
X78308000Y-49808000D03*
X78308000Y-52808000D03*
D10*
G36*
X70268688Y-122910878D02*
X69278738Y-121920928D01*
X70975794Y-120223872D01*
X71965744Y-121213822D01*
X70268688Y-122910878D01*
X70268688Y-122910878D01*
G37*
G36*
X69261060Y-121903251D02*
X68271110Y-120913301D01*
X69968166Y-119216245D01*
X70958116Y-120206195D01*
X69261060Y-121903251D01*
X69261060Y-121903251D01*
G37*
G36*
X68253433Y-120895623D02*
X67263483Y-119905673D01*
X68960539Y-118208617D01*
X69950489Y-119198567D01*
X68253433Y-120895623D01*
X68253433Y-120895623D01*
G37*
G36*
X63232975Y-125916082D02*
X62243025Y-124926132D01*
X63940081Y-123229076D01*
X64930031Y-124219026D01*
X63232975Y-125916082D01*
X63232975Y-125916082D01*
G37*
G36*
X65248229Y-127931336D02*
X64258279Y-126941386D01*
X65955335Y-125244330D01*
X66945285Y-126234280D01*
X65248229Y-127931336D01*
X65248229Y-127931336D01*
G37*
G36*
X64240602Y-126923709D02*
X63250652Y-125933759D01*
X64947708Y-124236703D01*
X65937658Y-125226653D01*
X64240602Y-126923709D01*
X64240602Y-126923709D01*
G37*
G36*
X70021200Y-127683848D02*
X68324144Y-125986792D01*
X70021200Y-124289736D01*
X71718256Y-125986792D01*
X70021200Y-127683848D01*
X70021200Y-127683848D01*
G37*
G36*
X64222924Y-121744151D02*
X62525868Y-120047095D01*
X64222924Y-118350039D01*
X65919980Y-120047095D01*
X64222924Y-121744151D01*
X64222924Y-121744151D01*
G37*
D15*
X65743204Y-121708796D03*
D16*
X68430210Y-124395802D03*
D11*
X55499000Y-57023000D03*
X55499000Y-59563000D03*
X55499000Y-62103000D03*
X55499000Y-64643000D03*
X55499000Y-67183000D03*
X55499000Y-69723000D03*
X55499000Y-72263000D03*
X55499000Y-74803000D03*
X55499000Y-77343000D03*
X55499000Y-79883000D03*
X55499000Y-82423000D03*
X55499000Y-84963000D03*
X55499000Y-87503000D03*
X55499000Y-90043000D03*
X55499000Y-92583000D03*
X55499000Y-95123000D03*
X55499000Y-97663000D03*
X55499000Y-100203000D03*
X55499000Y-102743000D03*
X55499000Y-105283000D03*
X78359000Y-57023000D03*
X78359000Y-59563000D03*
X78359000Y-62103000D03*
X78359000Y-64643000D03*
X78359000Y-67183000D03*
X78359000Y-69723000D03*
X78359000Y-72263000D03*
X78359000Y-74803000D03*
X78359000Y-77343000D03*
X78359000Y-79883000D03*
X78359000Y-82423000D03*
X78359000Y-84963000D03*
X78359000Y-87503000D03*
X78359000Y-90043000D03*
X78359000Y-92583000D03*
X78359000Y-95123000D03*
X78359000Y-97663000D03*
X78359000Y-100203000D03*
X78359000Y-102743000D03*
X78359000Y-105283000D03*
D17*
X62765000Y-111290000D03*
X70365000Y-111290000D03*
X59365000Y-111290000D03*
X73865000Y-111290000D03*
X59665000Y-134190000D03*
X73865000Y-134190000D03*
D18*
X77914500Y-129667000D03*
D19*
X77914500Y-127127000D03*
X77914500Y-124587000D03*
X77914500Y-122047000D03*
X77914500Y-119507000D03*
X77914500Y-116967000D03*
X77914500Y-114427000D03*
X77914500Y-111887000D03*
X77914500Y-109347000D03*
D18*
X63944500Y-51117500D03*
X55372000Y-53848000D03*
M02*
